<svg x="0" y="0" width="48" height="48" version="1.1" xmlns="http://www.w3.org/2000/svg" xmlns:xlink="http://www.w3.org/1999/xlink"><defs><linearGradient x1="14.53051" y1="11.68966" x2="54.68269" y2="57.52354" gradientUnits="userSpaceOnUse" id="color-1"><stop offset="0" stop-color="#000000" stop-opacity="0.7"></stop><stop offset="1" stop-color="#000000" stop-opacity="0"></stop></linearGradient><filter id="dropshadow"><feColorMatrix type="matrix" values="0 0 0 0 .05  0 0 0 0 .15  0 0 0 0 .1  0 0 0 .8 0"></feColorMatrix> <feOffset dx="0" dy="1"></feOffset> <feGaussianBlur stdDeviation="1"></feGaussianBlur> <feComposite in="SourceGraphic"></feComposite></filter></defs><g fill="none" stroke="none" stroke-width="none" stroke-linecap="butt" stroke-linejoin="miter" stroke-miterlimit="none" stroke-dasharray="" stroke-dashoffset="0" font-family="none" font-weight="normal" font-size="none" text-anchor="start" mix-blend-mode="normal"><g fill="#000000" stroke="none" stroke-width="1" stroke-miterlimit="4" font-family="&quot;Open Sans&quot;, sans-serif" font-size="14"></g><g fill="#000000" stroke="none" stroke-width="1" stroke-miterlimit="4" font-family="&quot;Open Sans&quot;, sans-serif" font-size="14"></g><path d="M5,45c-1.10457,0 -2,-0.89543 -2,-2l0,-38c0,-1.10457 0.89543,-2 2,-2l38,0c1.10457,0 2,0.89543 2,2l0,38c0,1.10457 -0.89543,2 -2,2z" fill="#2d48a8" stroke-width="1" stroke-miterlimit="10" font-family="sans-serif" font-size="12" filter="url(#dropshadow)"></path><path d="M31.90842,45c0,0 -16.82158,-16.82158 -16.82158,-16.82158c-0.34327,-0.34327 -0.55633,-0.81675 -0.55633,-1.33757l0,-13.25729c0,-1.04165 0.85225,-1.89389 1.89389,-1.8939c0,0 0.00001,0 0.00001,0l13.25728,0c0.52083,0 0.9943,0.21306 1.33757,0.55633c0,0 13.98074,13.98074 13.98074,13.98074l0,16.77327c0,1.10457 -0.89543,2 -2,2z" fill="url(#color-1)" stroke-width="1" stroke-miterlimit="10" font-family="sans-serif" font-size="12"></path><path d="M31.57559,17.37136l0,1.8939l1.8939,0l0,1.8939l-1.8939,0l0,1.8939l1.8939,0l0,1.8939l-1.8939,0l0,1.8939c0,1.04164 -0.85225,1.8939 -1.8939,1.8939l-13.25729,0c-1.04164,0 -1.8939,-0.85225 -1.8939,-1.8939l0,-13.25729c0,-1.04164 0.85225,-1.8939 1.8939,-1.8939l13.25729,0c1.04164,0 1.8939,0.85225 1.8939,1.8939l0,1.8939l1.8939,0l0,1.8939z M29.68169,13.58356l-13.25729,0l0,13.25729l6.62864,0l0,-5.68169l-4.73475,0l0,5.68169c0,0 11.36339,0 11.36339,0z M24,30.62864l3.7878,0l0,5.68169l-3.7878,0z M24,19.26525l3.7878,0l0,2.84085l-3.7878,0z" fill="#ffffff" stroke="none" stroke-width="0" stroke-miterlimit="4" font-family="&quot;Open Sans&quot;, sans-serif" font-size="14"></path></g></svg>