<?xml version="1.0" standalone="no"?>
<!DOCTYPE svg PUBLIC "-//W3C//DTD SVG 20010904//EN"
 "http://www.w3.org/TR/2001/REC-SVG-20010904/DTD/svg10.dtd">
<svg version="1.0" xmlns="http://www.w3.org/2000/svg"
 width="16.000000pt" height="16.000000pt" viewBox="0 0 16.000000 16.000000"
 preserveAspectRatio="xMidYMid meet">
<metadata>
Created by potrace 1.11, written by Peter Selinger 2001-2013
</metadata>
<g transform="translate(0.000000,16.000000) scale(0.002286,-0.002286)"
fill="#000000" stroke="none">
<path d="M676 6554 c-62 -12 -106 -35 -151 -77 -46 -43 -88 -137 -88 -198 -1
-26 -5 -46 -9 -43 -4 3 -3 -7 4 -21 9 -21 9 -28 -1 -35 -11 -6 -11 -9 0 -13
12 -4 11 -7 -1 -16 -10 -7 -11 -11 -2 -11 6 0 12 -5 12 -11 0 -5 -5 -7 -12 -3
-7 5 -8 3 -3 -6 11 -18 12 -120 1 -113 -5 4 -6 0 -1 -7 5 -8 9 -144 9 -302 1
-220 -2 -287 -11 -284 -7 3 -10 -1 -6 -9 3 -8 8 -13 12 -11 3 2 6 -11 6 -30 0
-25 -4 -33 -14 -29 -12 5 -12 3 0 -11 20 -24 20 -236 0 -229 -12 5 -12 3 0
-11 20 -24 20 -557 0 -549 -12 5 -12 3 0 -11 20 -24 20 -236 0 -229 -12 5 -12
3 -1 -10 19 -23 21 -798 3 -791 -7 3 -10 -1 -6 -9 3 -8 8 -13 12 -11 3 2 6
-11 6 -30 0 -25 -4 -33 -14 -29 -12 5 -12 3 0 -11 20 -24 20 -236 0 -229 -12
5 -12 3 0 -11 20 -24 20 -557 0 -549 -12 5 -12 3 0 -11 20 -24 20 -236 0 -229
-12 5 -12 3 -1 -10 19 -23 21 -798 3 -791 -7 3 -10 -1 -6 -9 3 -8 8 -13 12
-11 3 2 6 -11 6 -30 0 -25 -4 -33 -14 -29 -12 5 -12 3 0 -11 20 -24 20 -236 0
-229 -12 5 -12 3 0 -11 16 -20 21 -506 4 -496 -5 3 -4 -1 3 -10 9 -11 10 -18
2 -23 -5 -3 -10 -12 -10 -18 0 -7 4 -6 11 3 9 12 10 11 6 -7 -3 -13 -2 -23 2
-23 6 0 10 -17 13 -57 1 -7 6 -13 11 -13 6 0 7 -3 4 -7 -4 -3 1 -11 10 -18 11
-8 13 -14 5 -19 -7 -4 -12 -2 -12 3 0 6 -4 11 -9 11 -8 0 -8 -8 -2 -39 1 -2 8
2 16 9 12 10 22 5 56 -29 23 -23 44 -39 47 -37 11 12 41 -15 35 -32 -5 -13 -4
-15 8 -6 19 14 38 12 49 -6 5 -8 10 -11 10 -6 0 5 8 2 17 -5 14 -12 16 -12 11
1 -4 11 0 16 13 16 16 0 17 -2 4 -16 -8 -9 -12 -19 -9 -23 4 -3 16 5 26 19 15
18 23 22 32 14 7 -5 16 -6 21 -2 4 4 2 -3 -6 -15 -13 -22 -28 -25 -42 -8 -5 6
-6 1 -2 -10 3 -11 3 -16 -1 -12 -4 4 -14 1 -22 -6 -13 -10 -14 -9 -8 3 7 12 6
12 -8 -1 -10 -9 -14 -22 -10 -32 5 -15 9 -15 34 -2 16 8 31 11 34 6 3 -5 -11
-16 -32 -25 -20 -9 -26 -14 -12 -11 43 11 53 10 57 -2 3 -7 -4 -10 -19 -7 -21
4 -21 4 -3 -5 26 -11 42 3 25 24 -8 10 -9 15 -1 15 6 0 18 -11 27 -24 16 -26
34 -25 65 1 15 12 19 12 31 -6 8 -12 18 -18 21 -14 4 3 7 -1 7 -10 0 -9 4 -19
10 -22 15 -10 -1 28 -18 42 -9 7 -13 16 -9 19 4 4 13 1 21 -6 12 -10 21 -8 46
10 30 21 39 40 19 40 -5 0 -8 -4 -4 -9 3 -5 0 -13 -6 -17 -7 -4 -9 -3 -6 3 4
6 1 15 -6 21 -17 13 -46 11 -40 -4 2 -7 -5 -17 -16 -23 -27 -15 -30 -14 -26 9
2 11 -1 23 -7 26 -7 5 -8 2 -3 -7 5 -8 5 -11 0 -7 -4 4 -14 3 -22 -3 -10 -9
-13 -8 -13 2 0 11 -3 11 -11 -1 -9 -13 -10 -12 -5 2 3 10 2 17 -2 15 -12 -4
-15 7 -8 31 7 20 10 21 24 10 14 -11 15 -10 9 6 -6 16 -5 17 8 6 8 -7 15 -9
15 -4 1 5 7 -2 14 -15 8 -14 16 -19 20 -13 3 6 2 13 -4 17 -5 3 -10 11 -10 18
0 6 6 2 14 -9 10 -13 11 -23 4 -31 -7 -9 -7 -13 0 -13 6 0 16 9 22 19 13 26
13 34 -2 25 -7 -4 -8 -3 -4 4 4 6 13 9 21 6 8 -4 13 -10 10 -14 -3 -5 4 -8 15
-7 14 1 19 6 15 17 -3 9 0 8 10 -4 8 -10 12 -23 9 -27 -3 -5 -1 -9 4 -9 17 0
22 13 9 29 -11 14 -10 15 7 1 18 -14 19 -13 13 3 -4 11 -3 16 3 12 14 -9 12
-21 -4 -37 -7 -8 -21 -29 -31 -47 -15 -31 -15 -35 -1 -49 11 -11 16 -12 16 -4
0 7 -4 12 -10 12 -5 0 -10 4 -10 9 0 6 9 9 20 8 12 -1 18 -7 16 -14 -3 -7 1
-10 9 -6 8 3 13 9 10 13 -2 4 7 8 21 8 18 0 22 -4 15 -11 -6 -6 -11 -16 -11
-22 0 -5 7 -1 15 9 8 11 18 17 21 13 4 -4 1 -14 -7 -24 -12 -15 -12 -16 1 -8
20 13 33 13 43 0 5 -6 7 -4 4 5 -2 8 -9 14 -15 13 -5 -1 -12 4 -15 11 -4 9 3
14 19 14 13 0 21 -4 19 -9 -7 -11 30 -30 40 -21 4 4 6 -2 3 -13 -4 -15 0 -21
12 -21 9 0 17 6 17 13 0 7 -3 11 -5 8 -3 -3 -11 4 -19 15 -9 12 -20 17 -31 13
-15 -6 -15 -5 -3 10 17 21 16 21 37 -1 17 -16 18 -16 11 2 -6 15 -4 17 10 11
10 -4 26 -7 36 -7 9 0 15 -3 12 -8 -5 -8 24 -25 39 -21 5 1 6 -5 2 -14 -3 -10
-2 -14 5 -10 13 9 6 30 -11 30 -7 0 -15 5 -17 12 -5 15 14 11 52 -9 25 -13 34
-14 48 -4 9 7 13 17 9 21 -4 5 1 5 11 2 10 -4 17 -2 17 5 0 6 3 8 7 5 3 -4 13
-1 21 6 13 10 14 9 8 -10 -9 -29 21 -47 46 -29 10 7 14 17 10 21 -4 5 1 5 11
2 10 -4 20 -7 23 -7 2 0 1 -8 -2 -17 -5 -17 -5 -17 9 -1 20 25 30 22 17 -4
l-11 -23 17 22 c19 27 31 29 31 8 0 -8 -5 -15 -10 -15 -6 0 -6 -5 0 -12 6 -7
9 -21 8 -31 -2 -9 0 -15 4 -13 4 3 7 26 6 51 -1 33 2 45 10 41 7 -2 17 0 22 5
7 7 16 5 27 -6 20 -20 20 -13 1 24 -15 31 -41 46 -50 31 -6 -9 8 -14 28 -11
13 2 7 -16 -10 -30 -15 -12 -16 -12 -10 4 4 11 3 16 -3 12 -6 -3 -10 0 -10 7
0 10 -2 10 -9 -1 -5 -8 -11 -9 -15 -3 -3 5 1 13 10 16 13 5 14 9 4 21 -7 8
-17 15 -22 15 -6 0 -5 -7 2 -15 7 -8 11 -15 9 -16 -32 -6 -39 -5 -39 4 -1 7
-7 1 -16 -13 -14 -23 -14 -23 -9 -2 4 13 2 22 -4 22 -6 0 -10 -3 -10 -7 5 -29
-2 -33 -26 -17 -14 9 -28 14 -32 10 -3 -3 -1 -6 6 -6 7 0 9 -5 6 -11 -5 -6
-13 -3 -22 10 -8 12 -19 21 -25 21 -6 0 -3 -9 7 -20 17 -19 17 -19 -5 -15 -13
2 -25 7 -28 10 -3 2 -12 -1 -21 -8 -14 -11 -14 -10 -2 6 12 15 12 17 -3 11
-18 -7 -16 -31 3 -27 14 4 14 -3 1 -27 -6 -11 -17 -17 -25 -14 -8 4 -12 10 -9
15 3 5 10 7 16 3 5 -3 2 9 -7 27 -22 43 -30 51 -21 22 5 -15 3 -23 -4 -23 -6
0 -8 5 -4 12 4 7 3 8 -4 4 -7 -4 -10 -2 -6 7 3 8 -2 20 -11 27 -9 8 -15 8 -15
2 0 -6 4 -13 9 -16 5 -4 8 -14 6 -24 -2 -9 -4 -21 -4 -25 -1 -5 -6 -5 -11 -2
-7 4 -6 13 1 27 9 16 8 19 -2 13 -8 -6 -10 -4 -4 5 5 8 4 11 -3 7 -6 -4 -8 0
-5 11 2 10 14 24 26 32 19 12 21 11 10 -2 -7 -8 -10 -18 -6 -21 3 -4 12 1 18
10 11 15 15 15 29 4 9 -7 14 -17 11 -21 -3 -5 -1 -11 5 -15 5 -3 10 -1 10 4 0
6 3 10 8 9 4 -1 17 3 28 10 12 6 25 8 29 4 5 -4 5 2 2 13 -7 20 -7 20 8 1 10
-13 15 -15 15 -6 0 7 3 10 6 7 4 -4 1 -13 -6 -22 -7 -8 -8 -15 -3 -15 16 0 32
22 26 39 -4 13 -3 13 5 2 12 -17 5 -41 -12 -41 -6 0 -4 -5 4 -10 18 -12 30
-13 29 -2 -5 27 1 34 18 21 15 -12 16 -12 9 6 -4 11 -4 16 0 12 4 -4 13 1 21
11 12 16 13 15 6 -3 -6 -17 -5 -18 9 -7 13 10 17 10 22 -3 6 -17 26 -12 26 6
0 6 -5 7 -12 3 -7 -4 -8 -3 -4 5 6 8 12 9 20 2 7 -6 16 -8 19 -4 7 7 11 -12 7
-36 -2 -13 0 -13 16 0 11 8 15 9 10 2 -4 -7 -3 -13 3 -13 6 0 15 9 21 19 14
27 13 36 -5 21 -15 -13 -35 -6 -35 13 0 8 3 7 9 -2 5 -8 14 -10 22 -5 15 9 59
13 54 4 -2 -3 3 -13 10 -23 11 -15 13 -16 19 -2 3 8 0 15 -6 15 -6 0 -8 3 -5
7 4 3 16 -2 27 -12 27 -24 47 -27 54 -8 4 10 1 13 -13 8 -11 -3 -24 1 -32 12
-12 16 -12 17 1 8 8 -6 34 -10 58 -9 38 0 47 -5 43 -28 0 -5 6 -8 14 -8 18 0
20 -16 3 -17 -7 0 -22 -4 -33 -8 -14 -5 -16 -4 -6 3 9 7 10 12 2 16 -6 4 -11
3 -11 -3 0 -5 -8 -8 -17 -6 -10 1 -26 -4 -35 -13 -14 -12 -20 -12 -33 -2 -8 7
-15 9 -15 5 0 -4 -6 -2 -13 4 -8 6 -17 8 -20 4 -4 -3 -7 -1 -7 6 0 7 -5 9 -11
5 -8 -4 -7 -9 2 -15 9 -6 2 -7 -19 -4 -25 4 -33 2 -29 -7 2 -7 10 -12 16 -10
6 1 14 -4 17 -12 3 -9 12 -12 21 -9 11 4 14 2 9 -5 -3 -6 3 -16 15 -22 15 -8
19 -9 15 -1 -4 6 -2 12 3 12 6 1 17 2 24 3 6 1 17 -5 24 -14 7 -8 13 -10 13
-5 0 6 -6 17 -12 24 -11 10 -9 12 7 9 11 -1 26 -9 33 -15 16 -16 32 -17 32 -2
0 5 -4 8 -9 4 -6 -3 -9 4 -8 15 2 25 14 26 22 1 11 -35 33 -46 54 -27 18 16
20 16 29 0 11 -19 36 -9 28 11 -3 8 2 19 11 27 14 11 15 10 9 -8 -4 -14 -1
-26 11 -35 15 -11 16 -11 6 1 -7 8 -13 19 -13 25 1 5 9 0 20 -13 20 -24 46
-21 36 3 -3 8 2 19 11 27 14 11 15 10 9 -9 -8 -24 10 -41 26 -25 8 8 7 16 -2
27 -7 8 -8 15 -3 15 16 0 32 -22 26 -39 -4 -13 -2 -13 7 2 6 9 16 17 22 17 7
0 6 -5 -1 -14 -10 -12 -8 -17 8 -26 14 -7 21 -7 21 0 0 5 -7 10 -16 10 -14 0
-14 3 -4 15 13 16 35 21 26 6 -6 -9 22 -26 38 -22 5 1 6 -5 2 -14 -3 -10 -2
-14 5 -10 13 9 6 30 -11 30 -7 0 -15 5 -17 12 -5 15 14 11 52 -9 25 -13 34
-14 48 -4 9 7 13 17 9 21 -4 5 1 5 11 2 10 -4 17 -2 17 5 0 6 3 8 7 5 3 -4 13
-1 21 6 13 10 14 9 8 -10 -9 -29 21 -47 46 -29 10 7 14 17 10 21 -4 5 1 5 11
2 10 -4 20 -7 23 -7 2 0 1 -8 -2 -17 -5 -15 -3 -15 10 1 9 11 16 16 16 10 1
-5 9 0 18 11 24 27 41 29 39 5 -1 -12 -7 -18 -13 -16 -16 6 -37 -19 -31 -36 4
-8 6 -7 6 4 1 10 4 17 9 17 19 -3 31 3 56 27 l26 26 9 -23 c8 -20 10 -21 10
-5 1 11 4 16 7 13 4 -3 15 -2 25 3 14 8 17 6 16 -10 -1 -15 -7 -19 -22 -15
-11 3 -14 2 -7 -1 6 -3 9 -10 6 -16 -4 -6 3 -5 15 2 12 6 18 16 15 22 -5 8 -1
9 10 5 10 -4 20 -7 22 -7 2 0 4 -4 4 -10 0 -5 -5 -9 -11 -7 -6 1 -14 -5 -16
-13 -4 -13 -3 -13 6 0 6 8 11 11 11 5 0 -5 13 6 30 25 16 19 29 29 30 22 0 -7
5 -10 12 -6 7 4 8 3 4 -5 -4 -6 -12 -9 -17 -6 -5 4 -9 1 -9 -4 0 -6 7 -11 15
-11 8 0 15 -4 15 -10 0 -5 5 -10 11 -10 8 0 8 4 2 13 -6 6 -10 20 -10 30 0 25
29 17 49 -15 20 -32 30 -34 49 -12 12 14 14 14 25 -1 14 -19 38 -11 30 10 -3
8 2 19 11 27 14 11 15 10 9 -8 -4 -14 -1 -26 11 -35 15 -11 16 -11 5 1 -6 8
-12 19 -12 25 1 5 9 0 20 -13 20 -24 46 -21 36 3 -3 8 2 19 11 27 14 11 15 10
9 -9 -8 -24 10 -41 26 -25 8 8 7 16 -2 27 -7 8 -8 15 -3 15 16 0 32 -22 26
-39 -4 -13 -2 -13 7 2 6 9 16 17 22 17 7 0 7 -4 -1 -14 -9 -10 -6 -17 13 -30
18 -11 27 -13 32 -4 4 7 3 8 -4 4 -7 -4 -12 -2 -12 3 0 6 -7 11 -16 11 -14 0
-14 3 -4 15 13 16 35 21 26 6 -6 -9 22 -26 38 -22 5 1 6 -5 2 -14 -3 -10 -2
-14 5 -10 13 9 6 30 -11 30 -7 0 -15 5 -17 12 -5 15 14 11 52 -9 25 -13 34
-14 48 -4 9 7 13 17 9 21 -4 5 1 5 11 2 10 -4 17 -2 17 5 0 6 3 8 7 5 3 -4 13
-1 21 6 13 10 14 9 8 -10 -9 -29 21 -47 46 -29 10 7 14 17 10 21 -4 5 1 5 11
2 10 -4 20 -7 23 -7 2 0 1 -8 -2 -18 -5 -16 -5 -16 9 1 20 24 30 21 17 -5
l-11 -23 17 23 c19 26 31 28 31 7 0 -8 -5 -15 -10 -15 -6 0 -6 -5 0 -12 6 -7
9 -21 8 -31 -2 -9 0 -15 4 -13 4 3 7 26 6 51 -1 33 2 45 10 41 7 -2 17 0 22 5
7 7 16 5 27 -6 20 -20 20 -13 1 24 -15 31 -41 46 -50 31 -6 -9 8 -14 28 -11
13 2 7 -16 -10 -30 -15 -12 -16 -12 -10 4 4 11 3 16 -3 12 -6 -3 -10 0 -10 7
0 10 -2 10 -9 -1 -5 -8 -11 -9 -15 -3 -3 5 1 13 10 16 13 5 14 9 4 21 -7 8
-17 15 -22 15 -6 0 -5 -7 2 -15 7 -8 11 -15 9 -16 -32 -6 -39 -5 -39 4 -1 7
-7 1 -16 -13 -14 -23 -14 -23 -9 -2 4 13 2 22 -4 22 -6 0 -10 -3 -10 -7 5 -29
-2 -33 -26 -17 -14 9 -28 14 -32 10 -3 -3 -1 -6 6 -6 7 0 9 -5 6 -11 -5 -6
-13 -3 -22 10 -8 12 -19 21 -25 21 -6 0 -3 -9 7 -20 17 -19 17 -19 -5 -15 -13
2 -25 7 -28 10 -3 2 -12 -1 -21 -8 -14 -11 -14 -10 -2 6 12 15 12 17 -3 11
-18 -7 -16 -31 3 -27 14 4 14 -3 1 -27 -6 -11 -17 -17 -25 -14 -8 4 -12 10 -9
15 3 5 10 7 16 3 5 -3 2 9 -7 27 -22 43 -30 51 -21 22 5 -15 3 -23 -4 -23 -6
0 -8 5 -4 12 4 7 3 8 -4 4 -7 -4 -10 -2 -6 7 3 8 -2 20 -11 27 -9 8 -15 8 -15
2 0 -6 4 -13 9 -16 5 -4 8 -14 6 -24 -2 -9 -4 -21 -4 -25 -1 -5 -6 -5 -11 -2
-6 4 -7 13 -1 24 8 15 5 17 -22 15 -49 -2 -50 -3 -43 -21 5 -15 4 -15 -9 1
-11 14 -15 16 -15 5 0 -12 -2 -12 -10 1 -5 8 -10 11 -10 6 0 -5 -8 -2 -17 5
-10 8 -14 9 -10 2 5 -8 1 -11 -13 -8 -11 2 -20 0 -20 -6 0 -5 5 -9 11 -9 5 0
8 -4 4 -10 -7 -12 -35 -2 -32 12 1 6 -5 13 -13 15 -13 4 -13 3 0 -6 12 -8 11
-10 -8 -8 -12 0 -22 5 -22 10 0 4 -4 6 -9 2 -5 -3 -12 -1 -16 5 -4 6 -12 7
-18 3 -7 -4 -18 -8 -25 -9 -10 -2 -11 1 -1 12 6 8 8 14 4 14 -4 0 -1 7 6 17
13 15 12 15 -8 4 -18 -9 -22 -9 -18 2 12 29 51 16 46 -15 -1 -10 13 -10 22 -1
4 3 1 13 -6 22 -11 14 -10 15 7 1 18 -14 19 -13 12 5 -5 14 -4 17 4 9 12 -12
4 -44 -11 -44 -18 0 -8 -16 11 -17 11 -1 18 2 16 6 -3 4 0 13 5 21 8 13 10 13
18 0 5 -8 8 -17 5 -21 -2 -4 5 -7 15 -6 12 1 25 13 32 29 13 31 33 50 22 21
-6 -15 -4 -16 9 -5 13 10 17 10 22 -3 6 -17 26 -12 26 6 0 6 -5 7 -12 3 -7 -4
-8 -3 -4 5 8 13 28 3 54 -28 10 -13 12 -13 12 0 0 8 10 20 23 28 19 13 21 12
10 -1 -7 -8 -10 -18 -6 -21 3 -4 12 1 18 10 11 15 15 15 29 4 9 -7 14 -17 11
-21 -3 -5 -1 -11 5 -15 5 -3 10 -1 10 4 0 6 3 10 8 9 4 -1 17 3 28 10 12 6 25
8 29 4 5 -4 5 2 2 13 -7 20 -7 20 8 1 10 -13 15 -15 15 -6 0 7 3 10 6 7 4 -4
1 -13 -6 -22 -7 -8 -8 -15 -3 -15 16 0 32 22 26 39 -4 13 -3 13 5 2 12 -17 5
-41 -12 -41 -6 0 -4 -5 4 -10 18 -12 30 -13 29 -2 -5 27 1 34 18 21 15 -12 16
-12 9 6 -4 11 -4 16 0 12 4 -4 13 1 21 11 12 16 13 15 6 -3 -6 -17 -5 -18 9
-7 13 10 17 10 22 -3 6 -17 26 -12 26 6 0 6 -5 7 -12 3 -7 -4 -8 -3 -4 5 6 8
12 9 20 2 7 -6 16 -8 19 -4 7 7 11 -12 7 -36 -2 -13 0 -13 16 0 11 8 15 9 10
2 -4 -7 -3 -13 3 -13 6 0 15 9 21 19 14 27 13 36 -5 21 -15 -13 -35 -6 -35 13
0 8 3 7 9 -2 5 -8 14 -10 22 -5 15 9 59 13 54 4 -2 -3 3 -13 10 -23 11 -15 13
-16 19 -2 3 8 0 15 -6 15 -6 0 -8 3 -5 7 4 3 16 -2 27 -12 27 -24 47 -27 54
-8 4 10 1 13 -13 8 -11 -3 -24 1 -32 12 -12 15 -12 16 1 8 8 -5 33 -9 55 -9
22 1 32 -1 22 -3 -9 -3 -15 -9 -12 -14 4 -5 13 -5 24 1 10 5 22 6 26 2 5 -4 5
2 2 13 -7 20 -7 20 8 1 10 -13 15 -15 15 -6 0 7 3 10 6 7 4 -4 1 -13 -6 -22
-7 -8 -8 -15 -3 -15 16 0 32 22 26 39 -4 13 -3 13 5 2 12 -17 5 -41 -12 -41
-6 0 -4 -5 4 -10 18 -12 30 -13 29 -2 -5 27 1 34 18 21 15 -12 16 -12 10 4 -4
10 -3 16 2 12 5 -3 12 1 14 7 4 10 8 10 15 -1 8 -11 11 -11 16 0 3 8 4 5 1 -6
-5 -20 7 -47 19 -46 19 3 27 0 21 -8 -3 -5 -1 -12 5 -16 6 -4 8 -11 5 -16 -13
-20 7 -30 26 -13 16 14 21 15 35 3 14 -11 18 -10 30 6 8 10 14 15 14 11 0 -5
7 -2 16 5 15 12 16 11 10 -8 -9 -29 21 -47 46 -29 10 7 14 17 10 21 -4 5 1 5
11 2 10 -4 20 -7 23 -7 2 0 1 -8 -2 -17 -5 -16 -3 -15 10 1 9 11 19 17 22 13
4 -4 1 -14 -7 -24 -12 -15 -12 -16 1 -8 20 13 33 13 43 0 5 -6 7 -4 4 5 -2 8
-9 14 -15 13 -5 -1 -12 4 -15 11 -4 9 3 14 19 14 13 0 21 -4 19 -9 -7 -11 30
-30 40 -21 4 4 6 -2 3 -13 -4 -15 0 -21 12 -21 9 0 17 6 17 13 0 7 -3 11 -5 8
-3 -3 -11 4 -19 15 -9 12 -20 17 -31 13 -15 -6 -15 -5 -3 10 17 21 16 21 37 0
17 -17 18 -17 11 1 -6 14 -4 17 8 12 8 -3 22 -9 30 -12 9 -4 15 -1 15 7 0 7 3
9 7 6 3 -4 13 -1 21 6 13 10 14 9 8 -10 -9 -29 21 -47 46 -29 10 7 14 17 10
21 -4 5 1 5 11 2 10 -4 20 -7 23 -7 2 0 1 -8 -2 -18 -5 -15 -3 -14 10 2 9 11
19 16 23 13 4 -4 1 -13 -5 -19 -7 -7 -12 -17 -12 -23 0 -5 5 -2 11 8 8 14 14
16 25 6 7 -6 11 -16 7 -22 -3 -5 -1 -7 5 -4 13 9 8 43 -7 39 -17 -3 -13 15 5
22 22 8 26 8 19 -3 -3 -6 4 -15 16 -21 12 -7 19 -8 15 -2 -3 6 0 13 6 16 7 3
2 3 -12 -1 -22 -5 -23 -4 -12 10 14 16 42 13 42 -6 0 -6 2 -8 5 -5 3 3 0 17
-6 31 l-12 26 -18 -22 -18 -22 2 22 c0 12 4 20 8 17 4 -2 10 0 13 5 3 5 -1 12
-9 15 -9 3 -18 -1 -22 -9 -3 -10 -9 -12 -17 -7 -6 5 -19 8 -28 7 -10 -2 -18 2
-18 8 -1 7 -7 1 -16 -13 -14 -23 -14 -23 -9 -2 4 13 2 22 -4 22 -6 0 -10 -3
-10 -8 5 -28 -2 -32 -26 -16 -14 9 -28 14 -32 10 -3 -3 -1 -6 6 -6 7 0 9 -5 6
-10 -4 -6 -14 -2 -24 11 -15 19 -21 20 -37 10 -14 -9 -15 -11 -2 -7 9 2 22 -1
28 -9 12 -14 9 -15 -40 -3 -8 1 -14 -1 -13 -7 1 -5 -11 -11 -25 -12 l-27 -1
25 14 c21 12 22 14 5 12 -11 -2 -23 -7 -27 -12 -8 -12 -49 -16 -42 -4 3 4 11
8 19 8 8 0 16 4 20 9 3 5 -7 8 -22 7 -16 -2 -28 -9 -28 -16 0 -7 -6 -15 -13
-18 -10 -3 -10 2 -1 22 7 14 19 26 27 26 20 0 6 13 -18 17 -13 2 -18 -2 -15
-15 2 -11 -3 -19 -11 -19 -8 0 -14 5 -14 11 -1 6 -7 0 -16 -14 -14 -23 -14
-23 -9 -2 4 13 2 22 -4 22 -6 0 -10 -3 -10 -7 5 -29 -2 -33 -26 -17 -14 9 -28
14 -32 10 -3 -3 -1 -6 6 -6 7 0 9 -5 6 -11 -5 -6 -13 -3 -22 10 -8 12 -19 21
-25 21 -6 0 -3 -10 8 -22 10 -12 13 -18 5 -13 -8 5 -12 4 -8 -1 3 -6 -4 -11
-16 -11 -15 -2 -18 0 -9 6 17 10 17 21 0 32 -20 13 -32 11 -21 -3 16 -20 12
-50 -4 -43 -8 3 -17 5 -21 5 -3 0 3 7 14 15 19 15 19 15 -1 9 -15 -4 -16 -3
-6 4 9 7 10 12 2 16 -6 4 -11 3 -11 -2 0 -5 -10 -9 -21 -8 -17 1 -22 8 -24 31
-2 17 -1 24 2 17 3 -6 9 -10 14 -6 13 7 7 -19 -6 -28 -7 -5 -7 -8 0 -8 13 0
37 16 36 24 -3 23 1 29 9 14 8 -13 17 -15 39 -8 16 4 33 5 37 2 4 -4 4 2 1 13
-7 20 -7 20 8 1 10 -13 15 -15 15 -6 0 7 3 10 6 7 4 -4 1 -13 -6 -22 -7 -8 -8
-15 -3 -15 16 0 32 22 26 39 -4 13 -3 13 5 2 12 -17 5 -41 -12 -41 -6 0 -4 -5
4 -10 18 -12 30 -13 29 -2 -5 27 1 34 18 21 15 -12 16 -12 9 6 -4 11 -4 16 0
12 4 -4 13 1 21 11 12 16 13 15 6 -3 -6 -18 -5 -18 10 -6 9 7 17 9 17 4 0 -5
7 -10 15 -10 10 0 14 6 10 15 -4 12 -3 13 10 2 8 -7 15 -9 15 -4 1 5 8 -3 16
-18 8 -16 19 -28 25 -28 6 0 7 6 3 13 -5 7 0 6 11 -3 17 -13 18 -13 13 1 -4 9
-1 22 5 28 6 6 7 11 1 11 -5 0 -15 -5 -21 -11 -13 -13 -33 -4 -33 14 0 8 4 7
9 -2 8 -12 12 -12 25 -2 16 13 40 6 31 -9 -3 -5 4 -8 15 -7 14 1 19 6 15 17
-3 9 1 8 10 -4 10 -13 15 -15 15 -6 0 7 3 10 6 7 4 -4 1 -13 -6 -22 -7 -8 -8
-15 -3 -15 16 0 32 22 26 39 -4 13 -3 13 5 2 12 -17 5 -41 -12 -41 -6 0 -4 -5
4 -10 18 -12 30 -13 29 -2 -5 27 1 34 18 21 15 -12 16 -12 9 6 -4 11 -4 16 0
12 4 -4 13 1 21 11 12 16 13 15 6 -3 -6 -18 -5 -18 10 -6 10 8 17 9 17 3 0
-11 31 -9 52 4 6 4 8 3 5 -3 -7 -12 17 -25 27 -16 11 11 6 24 -6 17 -7 -5 -8
-3 -3 6 6 10 11 9 21 -5 7 -10 11 -22 8 -26 -3 -5 -1 -9 4 -9 17 0 22 13 9 29
-11 14 -10 14 6 2 13 -10 17 -11 17 -1 0 9 7 7 20 -5 22 -20 28 -8 8 15 -11
12 -10 12 3 2 9 -6 19 -9 22 -5 4 3 7 1 7 -5 0 -6 -5 -14 -11 -18 -12 -7 6
-24 26 -24 6 0 4 4 -4 9 -9 6 -10 11 -2 15 6 4 11 2 11 -4 0 -6 4 -9 10 -5 5
3 6 13 3 23 -4 13 -2 13 11 -3 l16 -20 -6 20 c-4 16 -2 15 9 -4 8 -14 17 -19
21 -13 3 6 2 13 -4 17 -5 3 -10 12 -10 18 0 7 5 4 11 -6 8 -13 15 -15 28 -8
12 7 22 6 29 -1 8 -8 16 -7 28 3 10 8 15 9 11 2 -5 -8 0 -11 13 -10 14 1 19 6
15 17 -3 9 1 8 10 -4 10 -13 15 -15 15 -6 0 7 3 10 6 7 4 -4 1 -13 -6 -22 -8
-10 -9 -15 -1 -15 6 0 16 9 23 20 11 18 14 18 30 3 20 -18 25 -4 6 17 -11 12
-10 12 3 2 9 -6 19 -9 22 -5 4 3 7 1 7 -5 0 -6 -5 -14 -11 -18 -12 -7 6 -24
26 -24 6 0 4 4 -4 9 -9 6 -10 11 -2 15 6 4 11 2 11 -4 0 -6 4 -9 10 -5 5 3 6
13 3 23 -4 13 -2 13 11 -3 l16 -20 -6 20 c-4 16 -2 15 9 -4 8 -14 17 -19 21
-13 3 6 2 13 -4 17 -5 3 -10 12 -10 18 0 7 5 4 11 -6 8 -14 14 -16 25 -6 8 6
14 7 14 2 0 -13 32 -13 49 1 11 8 13 8 8 0 -7 -13 17 -27 27 -17 11 11 6 24
-6 17 -7 -5 -8 -3 -3 6 6 10 11 9 21 -5 7 -10 11 -22 8 -26 -3 -5 -1 -9 4 -9
17 0 22 13 9 29 -11 14 -10 14 6 2 13 -10 17 -11 17 -1 0 9 7 7 20 -5 22 -20
28 -8 8 15 -11 12 -10 12 3 2 9 -6 19 -9 22 -5 4 3 7 1 7 -5 0 -6 -5 -14 -11
-18 -12 -7 6 -24 26 -24 6 0 4 4 -4 9 -9 6 -10 11 -2 15 6 4 11 2 11 -4 0 -6
4 -9 10 -5 5 3 6 13 3 23 -4 13 -2 13 11 -3 l16 -20 -6 20 c-4 16 -2 15 9 -4
8 -14 17 -19 21 -13 3 6 2 13 -4 17 -5 3 -10 12 -10 18 0 7 5 4 11 -6 8 -13
15 -15 28 -8 12 7 22 6 29 -1 8 -8 16 -7 28 3 10 8 15 9 11 2 -5 -8 0 -11 13
-10 14 1 19 6 15 17 -3 9 1 8 10 -4 10 -13 15 -15 15 -6 0 7 3 10 6 7 4 -4 1
-13 -6 -22 -8 -10 -9 -15 -1 -15 6 0 16 9 23 20 11 18 14 18 30 3 20 -18 25
-4 6 17 -11 12 -10 12 3 2 9 -6 19 -9 22 -5 4 3 7 1 7 -5 0 -6 -5 -14 -11 -18
-12 -7 6 -24 26 -24 6 0 4 4 -4 9 -9 6 -10 11 -2 15 6 4 11 2 11 -4 0 -6 4 -9
10 -5 5 3 6 13 3 23 -4 13 -2 13 11 -3 l16 -20 -6 20 c-5 17 -4 17 8 -2 9 -15
18 -19 26 -14 11 7 10 9 -2 14 -9 4 -16 12 -15 19 0 10 2 10 6 0 2 -6 9 -10
14 -6 8 5 13 -9 10 -28 -1 -10 13 -10 22 -1 4 3 2 12 -4 19 -7 8 -7 14 1 19 6
4 10 3 9 -2 -4 -20 2 -27 12 -13 9 13 10 12 5 -2 -3 -10 -1 -20 4 -23 6 -4 10
-1 10 6 0 7 8 5 20 -6 22 -20 28 -8 8 14 -10 11 -10 13 0 7 7 -4 12 -2 12 6 0
10 2 10 8 1 5 -8 13 -9 22 -3 20 13 39 12 20 0 -12 -8 -9 -10 11 -7 15 1 34 8
42 15 10 9 17 10 22 2 3 -6 11 -8 16 -5 5 4 9 1 9 -5 0 -6 5 -8 10 -5 6 4 8
12 4 18 -3 7 1 3 10 -7 8 -10 13 -23 10 -27 -3 -5 -1 -9 4 -9 6 0 13 7 16 16
9 22 8 26 -6 18 -7 -5 -8 -3 -3 6 6 10 11 9 22 -5 11 -16 17 -14 15 5 0 3 16
5 36 5 20 -1 43 3 51 9 11 8 13 8 8 -1 -4 -6 -4 -13 0 -16 5 -2 2 -2 -5 0 -8
1 -10 -2 -6 -9 4 -7 3 -8 -5 -4 -7 5 -10 2 -9 -6 2 -7 -3 -12 -10 -10 -8 1
-11 -2 -7 -8 3 -6 11 -7 17 -4 7 5 9 2 6 -8 -5 -11 0 -14 18 -10 13 2 24 8 24
13 0 5 -6 6 -13 3 -21 -8 -16 22 5 35 15 9 19 9 17 -1 -4 -34 0 -39 23 -27
l22 12 -23 18 c-13 11 -27 16 -32 13 -5 -3 -9 -1 -9 3 0 10 41 38 56 38 6 0
27 17 46 38 20 20 42 37 49 37 11 0 11 2 -1 10 -13 8 -12 10 3 10 9 0 17 5 17
11 0 5 -6 7 -12 3 -9 -5 -9 -2 1 9 15 19 26 23 15 5 -4 -7 -3 -8 5 -4 9 6 9
11 0 22 -9 11 -8 14 7 15 11 0 13 3 7 6 -8 3 -10 11 -5 21 4 9 8 43 8 75 -1
45 2 56 13 52 12 -5 12 -3 1 11 -17 20 -21 117 -5 110 6 -2 12 2 12 9 0 8 -5
13 -10 12 -6 -1 -11 38 -11 101 -1 56 3 102 7 102 5 0 5 5 1 12 -12 18 -11 87
1 80 5 -3 4 2 -4 11 -9 12 -10 17 -2 17 7 0 9 5 5 12 -13 20 -11 329 2 324 6
-2 11 2 11 10 0 7 -4 11 -8 9 -4 -3 -10 2 -13 11 -4 10 -2 13 7 8 8 -5 7 -2
-2 9 -9 12 -10 17 -2 17 8 0 9 6 4 18 -11 21 -10 43 1 61 6 10 5 12 -2 7 -7
-4 -12 -2 -12 3 0 6 5 11 10 11 6 0 10 5 10 11 0 5 -4 8 -8 5 -5 -3 -8 20 -8
50 1 35 5 53 12 50 6 -2 11 2 11 9 0 8 -5 13 -10 12 -7 -1 -11 48 -11 131 -1
102 2 131 12 127 7 -3 5 6 -5 22 -14 21 -15 25 -3 18 13 -8 13 -7 1 8 -9 12
-10 17 -2 17 7 0 9 5 5 12 -10 16 -12 178 -2 206 4 12 4 22 0 22 -4 0 -7 23
-7 50 0 28 4 50 8 50 5 0 5 -5 1 -12 -4 -7 -3 -8 5 -4 9 6 9 11 -1 23 -15 19
-18 143 -4 162 7 9 7 12 1 9 -7 -4 -10 14 -10 48 0 35 4 53 11 50 6 -2 11 2
11 9 0 8 -5 13 -11 12 -6 -1 -10 32 -11 90 0 51 3 94 8 94 4 1 11 2 16 3 21 3
20 13 -1 12 -25 -1 -31 19 -14 43 8 11 8 13 -1 7 -7 -4 -13 -2 -13 3 0 6 5 11
11 11 5 0 7 5 3 12 -4 7 -8 97 -8 200 -1 157 1 187 13 183 11 -4 12 -3 1 10
-17 20 -21 77 -7 94 9 12 9 13 0 7 -7 -4 -13 -2 -13 3 0 6 4 11 9 11 5 0 12 7
15 16 5 13 3 14 -6 6 -10 -8 -13 -3 -13 23 0 19 4 31 10 27 6 -3 4 2 -4 11 -9
12 -10 17 -2 17 7 0 9 5 5 12 -13 20 -12 49 1 44 6 -2 12 2 12 9 0 8 -5 13
-11 12 -7 -1 -11 91 -11 290 0 171 4 289 9 285 5 -3 5 1 0 9 -10 17 -12 639
-2 633 4 -3 6 1 3 8 -3 7 -7 28 -9 46 -3 26 0 32 12 27 12 -4 13 -3 2 10 -17
20 -21 77 -7 94 9 12 9 13 0 7 -7 -4 -13 -2 -13 3 0 6 4 11 9 11 5 0 12 7 15
16 5 13 3 14 -6 6 -10 -8 -13 -3 -13 23 0 19 4 31 10 27 6 -3 4 2 -4 11 -9 12
-10 17 -2 17 7 0 9 5 5 12 -13 20 -12 49 1 44 6 -2 12 2 12 9 0 8 -5 13 -11
12 -7 -1 -10 102 -11 325 0 192 4 324 9 320 5 -3 5 1 1 9 -13 20 -13 49 -1 42
6 -4 5 1 -3 10 -11 14 -11 17 0 17 10 0 11 2 2 8 -14 9 -14 51 1 71 8 11 8 13
-1 7 -8 -4 -13 -1 -13 9 0 10 5 13 12 9 7 -5 8 -3 3 6 -4 7 -9 28 -10 46 0 18
-4 36 -8 40 -4 4 -7 15 -7 24 0 22 -26 75 -45 90 -8 7 -15 19 -15 26 0 8 -4
14 -9 14 -5 0 -16 6 -23 14 -23 22 -91 54 -133 62 -65 12 -5589 11 -5649 -2z
m443 -6122 c13 10 14 10 4 -2 -16 -17 -17 -40 -2 -40 5 0 8 4 5 9 -3 5 1 14 9
21 8 7 15 8 15 3 0 -5 7 -10 15 -10 10 0 14 6 10 15 -4 12 -3 13 10 2 8 -7 15
-9 15 -4 1 5 8 -3 16 -18 8 -16 19 -28 25 -28 6 0 7 6 3 13 -5 7 -1 6 10 -2
16 -13 17 -13 14 5 -2 12 3 19 12 19 8 0 15 -8 15 -17 0 -9 4 -20 8 -24 15
-15 6 -25 -15 -19 -16 4 -19 3 -9 -3 9 -7 10 -12 2 -16 -6 -4 -11 -3 -11 2 0
11 -60 9 -79 -2 -10 -6 -12 -5 -7 2 4 7 3 12 -3 12 -5 0 -12 -4 -15 -8 -6 -10
-92 -9 -88 1 1 4 2 13 2 20 0 9 3 8 9 -2 6 -9 8 -2 6 20 -4 51 -4 51 -17 43
-7 -5 -8 -3 -3 5 5 9 10 10 18 2 7 -7 15 -7 26 1z m133 -4 c6 6 17 12 22 12 6
0 0 -7 -12 -16 -23 -16 -42 -12 -42 9 0 7 4 6 10 -3 7 -12 12 -12 22 -2z m188
-1 c9 2 7 -1 -4 -8 -14 -9 -21 -8 -35 6 -15 16 -15 17 4 8 11 -6 27 -8 35 -6z
m140 9 c0 -2 -7 -7 -16 -10 -8 -3 -12 -2 -9 4 6 10 25 14 25 6z m474 -29 c-3
-9 -10 -17 -15 -17 -18 0 -8 -16 11 -17 11 -1 18 2 16 6 -3 4 0 13 5 21 8 13
10 13 18 0 5 -8 8 -17 5 -21 -2 -4 5 -7 15 -6 12 1 25 13 32 29 13 31 33 50
22 21 -6 -15 -4 -16 9 -5 13 10 17 10 22 -3 6 -17 26 -12 26 6 0 6 -5 7 -12 3
-7 -4 -8 -3 -4 5 8 13 28 3 54 -28 10 -13 12 -13 12 0 0 8 10 20 23 28 19 13
21 12 10 -1 -7 -8 -10 -18 -6 -21 3 -4 12 1 18 10 11 15 15 15 29 4 9 -7 14
-17 11 -21 -3 -5 -1 -11 5 -15 5 -3 10 -1 10 4 0 6 3 10 8 9 4 -1 17 3 28 10
12 6 25 8 29 4 5 -4 5 2 2 13 -7 20 -7 20 8 1 10 -13 15 -15 15 -6 0 7 3 10 6
7 4 -4 1 -13 -6 -22 -7 -8 -8 -15 -3 -15 16 0 32 22 26 39 -4 13 -3 13 5 2 12
-17 5 -41 -12 -41 -6 0 -4 -5 4 -10 18 -12 30 -13 29 -2 -5 27 1 34 18 21 15
-12 16 -12 10 4 -4 11 -3 16 3 12 6 -3 10 -1 10 5 0 6 4 9 9 5 5 -3 13 -1 16
5 5 8 11 7 21 -1 8 -6 14 -8 14 -3 0 4 6 -1 14 -12 13 -16 15 -17 21 -3 3 9
18 15 35 15 32 0 37 -5 18 -24 -13 -13 5 -42 26 -42 6 0 3 5 -7 11 -18 10 -18
12 0 31 20 23 54 43 52 31 -1 -4 -1 -17 0 -28 1 -16 3 -17 10 -5 6 8 7 18 4
23 -3 5 4 4 15 -2 11 -6 23 -16 25 -23 4 -9 6 -8 6 2 1 8 11 21 24 29 19 13
21 12 10 -1 -17 -20 -4 -31 15 -12 12 12 17 13 23 3 4 -7 5 -17 3 -21 -3 -4 2
-8 11 -8 9 0 15 -7 13 -16 -3 -18 28 -29 37 -13 3 5 14 3 25 -3 26 -16 14 -31
-13 -17 -12 7 -19 8 -14 4 7 -9 -20 -45 -34 -45 -5 0 -16 14 -24 31 -9 17 -19
28 -22 25 -4 -3 -12 -1 -20 5 -10 9 -13 8 -13 -1 0 -6 -6 -10 -12 -7 -7 2 -22
-4 -34 -15 -21 -18 -21 -18 -45 1 -14 11 -30 16 -39 12 -23 -11 -43 -8 -48 8
-3 10 0 12 12 8 23 -9 20 0 -5 14 -13 7 -19 7 -15 1 3 -6 -5 -23 -18 -38 l-24
-28 3 26 c2 15 -3 29 -10 32 -10 3 -12 -1 -9 -12 4 -12 3 -13 -3 -4 -7 9 -12
6 -21 -12 -8 -18 -17 -24 -32 -21 -31 6 -40 14 -34 33 3 9 -4 0 -15 -20 -14
-25 -26 -35 -36 -32 -28 11 -14 30 18 25 5 -1 6 3 2 9 -3 6 -10 8 -15 5 -4 -3
-15 6 -24 20 -9 14 -22 25 -28 25 -6 0 -4 -8 6 -19 19 -21 12 -29 -21 -26 -14
1 -25 -7 -32 -22 -10 -21 -14 -22 -33 -12 -32 17 -39 31 -25 48 9 12 9 13 0 7
-8 -4 -11 -2 -7 7 3 8 -2 20 -11 27 -9 8 -15 8 -15 2 0 -6 4 -13 9 -16 5 -4 8
-14 6 -24 -2 -9 -4 -20 -4 -23 -1 -3 -7 -6 -15 -6 -12 0 -12 3 0 22 13 20 12
21 -19 19 -45 -2 -47 -3 -47 -15 0 -5 4 -7 10 -4 19 12 50 14 50 3 0 -5 -7 -7
-16 -4 -8 3 -12 2 -9 -3 3 -5 1 -12 -5 -16 -5 -3 -10 -1 -10 6 0 9 -3 9 -14 0
-11 -10 -17 -8 -29 9 -9 14 -17 17 -22 11 -3 -6 -10 -9 -15 -6 -4 3 -13 -2
-20 -10 -6 -7 -19 -11 -28 -9 -15 5 -15 4 1 -6 9 -6 17 -16 17 -22 0 -6 -9 -3
-20 7 -11 10 -17 21 -15 25 9 15 -23 19 -35 5 -12 -14 -44 -9 -35 6 3 4 12 6
20 2 8 -3 15 1 15 8 0 7 -3 9 -7 6 -3 -4 -12 -2 -19 3 -9 8 -18 3 -33 -16 -12
-15 -21 -32 -21 -38 1 -6 6 -1 13 12 7 12 16 19 20 16 8 -8 -21 -44 -34 -44
-5 0 -16 14 -25 31 -8 17 -11 28 -5 25 6 -4 11 -2 11 4 0 6 4 9 9 6 5 -3 14 1
21 9 7 8 9 15 5 15 -4 0 -1 7 6 17 13 15 12 15 -8 4 -18 -9 -22 -9 -18 2 12
29 51 16 46 -15 -1 -10 13 -10 22 -1 4 3 1 13 -6 22 -11 14 -10 15 7 1 18 -14
19 -13 12 5 -5 14 -4 17 4 9 6 -6 8 -18 4 -27z m36 23 c0 -5 -5 -10 -11 -10
-5 0 -7 5 -4 10 3 6 8 10 11 10 2 0 4 -4 4 -10z m310 -3 c9 2 7 -1 -4 -8 -14
-9 -21 -8 -35 6 -15 16 -15 17 4 8 11 -6 27 -8 35 -6z m140 9 c0 -2 -7 -7 -16
-10 -8 -3 -12 -2 -9 4 6 10 25 14 25 6z m510 -6 c0 -5 -5 -10 -11 -10 -5 0 -7
5 -4 10 3 6 8 10 11 10 2 0 4 -4 4 -10z m310 -3 c9 2 7 -1 -4 -8 -14 -9 -21
-8 -35 6 -15 16 -15 17 4 8 11 -6 27 -8 35 -6z m140 9 c0 -2 -7 -7 -16 -10 -8
-3 -12 -2 -9 4 6 10 25 14 25 6z m480 0 c0 -2 -7 -7 -16 -10 -8 -3 -12 -2 -9
4 6 10 25 14 25 6z m320 0 c0 -2 -7 -7 -16 -10 -8 -3 -12 -2 -9 4 6 10 25 14
25 6z m320 0 c0 -2 -7 -7 -16 -10 -8 -3 -12 -2 -9 4 6 10 25 14 25 6z m1400 0
c0 -2 -7 -7 -16 -10 -8 -3 -12 -2 -9 4 6 10 25 14 25 6z m-3901 -22 c4 3 8 -1
8 -9 0 -8 -4 -15 -9 -15 -4 0 -8 2 -8 4 0 2 -2 10 -3 18 -2 7 -2 10 0 5 3 -4
8 -5 12 -3z m960 0 c4 3 8 -1 8 -9 0 -8 -4 -15 -9 -15 -4 0 -8 2 -8 4 0 2 -2
10 -3 18 -2 7 -2 10 0 5 3 -4 8 -5 12 -3z m3336 -4 c3 -5 -1 -10 -10 -10 -9 0
-13 5 -10 10 3 6 8 10 10 10 2 0 7 -4 10 -10z m-5605 -10 c0 -5 -4 -10 -10
-10 -5 0 0 -10 13 -22 12 -13 25 -22 30 -20 4 1 7 -3 7 -9 0 -6 -9 -8 -22 -4
-21 5 -22 5 -4 -6 16 -10 22 -8 36 11 10 13 20 18 23 13 7 -11 -18 -37 -43
-45 -9 -3 -24 8 -37 26 -13 16 -23 26 -23 22 0 -4 -6 -4 -12 1 -19 11 -38 12
-38 2 0 -5 -7 -9 -15 -9 -8 0 -15 5 -15 11 0 5 4 8 9 4 5 -3 12 -1 16 5 4 6
10 8 15 5 5 -3 11 -1 15 5 4 6 11 8 16 5 5 -4 12 1 15 9 7 18 24 22 24 6z
m270 -10 c-6 -4 -11 -11 -11 -16 3 -32 -13 -44 -47 -35 -1 1 2 10 8 21 6 11
16 17 26 13 8 -3 14 -2 13 3 -4 22 2 35 12 28 8 -5 8 -9 -1 -14z m2970 10 c0
-5 -5 -10 -11 -10 -5 0 -7 5 -4 10 3 6 8 10 11 10 2 0 4 -4 4 -10z m-3077 -36
c11 -11 -13 -43 -28 -38 -11 5 -12 10 -2 25 12 20 20 23 30 13z m628 -14 c6 0
7 6 3 13 -4 6 2 4 13 -6 11 -9 22 -16 24 -15 2 2 -1 -2 -8 -8 -16 -14 -62 -10
-77 7 -8 9 -8 10 2 5 7 -4 15 0 19 10 4 11 8 13 11 6 2 -7 8 -12 13 -12z m209
5 c0 4 7 2 15 -5 12 -10 19 -10 33 2 22 19 44 17 48 -4 1 -11 -4 -16 -17 -15
-10 1 -19 6 -19 11 0 6 -8 3 -17 -6 -15 -16 -17 -16 -31 0 -12 15 -13 15 -8 0
3 -9 -2 -19 -10 -22 -20 -8 -24 -8 -23 2 3 20 -2 31 -15 26 -8 -3 -17 -1 -21
5 -3 6 0 9 8 5 8 -3 18 0 22 6 5 8 11 8 21 -1 8 -6 14 -8 14 -4z m1420 2 c0
-5 -7 -6 -16 -3 -8 3 -12 2 -9 -3 3 -5 1 -12 -4 -15 -5 -3 -11 1 -14 8 -6 14
6 23 31 23 6 0 12 -5 12 -10z m291 -7 c6 0 7 6 3 13 -4 6 2 4 13 -6 11 -9 22
-16 24 -15 2 2 -1 -2 -8 -8 -16 -14 -62 -10 -77 7 -8 9 -8 10 2 5 7 -4 15 0
19 10 4 11 8 13 11 6 2 -7 8 -12 13 -12z m585 -3 c1 -7 -6 -19 -14 -27 -14
-13 -15 -12 -9 3 3 9 1 19 -5 23 -7 4 -6 9 3 15 15 9 22 5 25 -14z m215 14 c6
10 8 7 6 -8 -2 -29 -20 -36 -44 -17 -10 9 -12 13 -5 9 7 -3 15 1 19 11 5 13 8
14 11 5 4 -11 6 -11 13 0z m320 -11 c6 0 8 4 5 9 -5 8 15 8 34 1 3 -1 10 -2
15 -1 6 1 3 -5 -6 -14 -21 -22 -65 -26 -86 -8 -10 8 -12 12 -5 8 7 -3 15 1 19
11 4 11 8 13 11 6 2 -7 8 -12 13 -12z m-3196 -8 c-3 -3 -11 0 -18 7 -9 10 -8
11 6 5 10 -3 15 -9 12 -12z m92 2 c2 -5 -2 -17 -9 -27 -9 -12 -17 -14 -28 -7
-13 9 -13 11 0 19 8 5 18 7 24 4 5 -3 6 -1 2 6 -4 6 -12 8 -18 5 -7 -4 -8 -2
-4 5 9 13 28 10 33 -5z m1828 -2 c-3 -3 -11 0 -18 7 -9 10 -8 11 6 5 10 -3 15
-9 12 -12z m92 2 c2 -5 -2 -17 -9 -27 -9 -12 -17 -14 -28 -7 -13 9 -13 11 0
19 8 5 18 7 24 4 5 -3 6 -1 2 6 -4 6 -12 8 -18 5 -7 -4 -8 -2 -4 5 9 13 28 10
33 -5z m800 0 c2 -5 -2 -17 -9 -27 -9 -12 -17 -14 -28 -7 -13 9 -13 11 0 19 8
5 18 7 24 4 5 -3 6 -1 2 6 -4 6 -12 8 -18 5 -7 -4 -8 -2 -4 5 9 13 28 10 33
-5z m233 1 c0 -12 -19 -12 -23 0 -4 9 -1 12 9 8 7 -3 14 -7 14 -8z m87 -1 c2
-5 -2 -17 -9 -27 -9 -12 -17 -14 -28 -7 -13 9 -13 11 0 19 8 5 18 7 24 4 5 -3
6 -1 2 6 -4 6 -12 8 -18 5 -7 -4 -8 -2 -4 5 9 13 28 10 33 -5z m-3204 -11 c-3
-7 -9 -13 -13 -13 -4 0 -10 6 -13 13 -3 7 3 13 13 13 10 0 16 -6 13 -13z
m1920 0 c-3 -7 -9 -13 -13 -13 -4 0 -10 6 -13 13 -3 7 3 13 13 13 10 0 16 -6
13 -13z m-213 -23 c0 -15 -5 -12 -26 11 -19 22 -19 22 4 10 12 -6 22 -16 22
-21z m-1045 9 c11 -17 -1 -21 -15 -4 -8 9 -8 15 -2 15 6 0 14 -5 17 -11z m135
1 c0 -5 -4 -10 -10 -10 -5 0 -10 5 -10 10 0 6 5 10 10 10 6 0 10 -4 10 -10z
m825 -1 c11 -17 -1 -21 -15 -4 -8 9 -8 15 -2 15 6 0 14 -5 17 -11z m135 1 c0
-5 -4 -10 -10 -10 -5 0 -10 5 -10 10 0 6 5 10 10 10 6 0 10 -4 10 -10z"/>
<path d="M1133 396 c1 -6 -5 -10 -14 -10 -11 1 -15 -5 -12 -17 7 -26 22 -34
29 -15 3 9 10 13 15 10 5 -3 7 -9 4 -14 -3 -5 7 -3 22 5 15 8 30 11 33 6 6
-10 40 -8 58 3 6 4 17 4 24 0 7 -4 8 -3 4 4 -4 7 -20 10 -36 7 -21 -4 -33 0
-42 13 -14 21 -88 27 -85 8z m93 -29 c6 -9 3 -8 -8 1 -12 10 -22 11 -36 3 -19
-10 -32 -6 -32 10 0 23 61 12 76 -14z m-93 -2 c-3 -9 -8 -14 -10 -11 -3 3 -2
9 2 15 9 16 15 13 8 -4z"/>
<path d="M1275 400 c3 -5 8 -10 11 -10 2 0 4 5 4 10 0 6 -5 10 -11 10 -5 0 -7
-4 -4 -10z"/>
<path d="M2569 417 c-8 -7 -21 -21 -27 -32 -6 -11 -12 -14 -12 -7 0 6 -5 12
-11 12 -8 0 -8 -4 1 -15 6 -8 9 -20 5 -27 -4 -7 0 -5 8 5 15 18 16 17 22 -4
l7 -22 14 24 c18 32 17 44 -1 29 -9 -7 -18 -10 -21 -7 -9 8 6 28 16 22 4 -3
11 2 14 11 8 22 4 25 -15 11z"/>
<path d="M2317 407 c-2 -7 0 -20 5 -31 7 -12 7 -21 0 -25 -11 -7 5 -24 26 -29
10 -2 10 3 2 17 -14 28 -12 38 3 16 8 -11 16 -14 20 -8 4 6 18 9 33 7 24 -2
25 -1 10 15 -9 10 -15 20 -14 22 2 2 -1 0 -7 -6 -24 -24 -51 -15 -47 17 2 12
-27 17 -31 5z m21 -32 c-3 -3 -9 2 -12 12 -6 14 -5 15 5 6 7 -7 10 -15 7 -18z"/>
<path d="M2655 406 c-14 -10 -23 -11 -37 -3 -9 6 -21 8 -25 4 -9 -9 17 -28 29
-21 7 5 12 -10 9 -28 0 -5 4 -8 9 -8 10 0 11 3 14 33 0 6 7 12 15 12 8 0 16 6
19 13 5 16 -10 15 -33 -2z"/>
<path d="M2724 398 c-10 -13 -15 -20 -10 -16 5 4 17 -3 28 -17 19 -25 47 -26
74 -4 8 6 14 8 14 4 0 -4 6 -2 13 4 8 6 17 7 21 3 4 -4 12 -7 17 -7 5 0 20
-12 33 -28 20 -23 25 -25 30 -11 4 9 4 19 1 22 -3 3 -5 0 -5 -7 0 -9 -5 -7
-16 3 -8 9 -13 20 -9 26 3 6 0 7 -9 4 -11 -4 -14 0 -11 15 4 22 -9 29 -20 11
-5 -8 -11 -8 -20 0 -9 8 -14 6 -20 -7 -6 -17 -7 -17 -21 1 -14 20 -14 20 -29
0 -14 -19 -15 -19 -21 4 -3 12 -10 22 -14 22 -4 0 -15 -10 -26 -22z m50 -27
c12 -14 14 -19 4 -17 -22 3 -39 17 -33 27 8 12 9 12 29 -10z m37 6 c-1 -12
-15 -9 -19 4 -3 6 1 10 8 8 6 -3 11 -8 11 -12z m79 9 c0 -3 -4 -8 -10 -11 -5
-3 -10 -1 -10 4 0 6 5 11 10 11 6 0 10 -2 10 -4z"/>
<path d="M1999 403 c-1 -5 -1 -11 0 -15 0 -4 -11 -16 -26 -28 -14 -11 -23 -23
-20 -27 8 -7 50 44 53 64 1 7 0 13 -2 13 -2 0 -5 -3 -5 -7z"/>
<path d="M2144 387 c-5 -12 -15 -21 -22 -19 -7 1 -12 -2 -12 -8 0 -12 13 -13
24 -2 4 4 12 7 18 7 13 0 20 33 9 39 -4 3 -11 -5 -17 -17z"/>
<path d="M2174 396 c1 -7 10 -24 19 -37 10 -13 15 -19 12 -12 -10 21 6 41 30
39 16 -2 22 1 18 10 -6 17 -25 18 -40 3 -8 -8 -13 -8 -17 0 -10 16 -25 14 -22
-3z"/>
<path d="M2443 384 c14 -12 24 -24 22 -26 -2 -2 5 -4 15 -4 27 0 25 3 -10 21
-17 9 -28 19 -26 24 3 4 -2 8 -11 8 -12 0 -9 -6 10 -23z"/>
<path d="M2070 366 c0 -2 7 -7 16 -10 8 -3 12 -2 9 4 -6 10 -25 14 -25 6z"/>
<path d="M766 368 c3 -5 9 -7 12 -4 3 3 11 1 19 -5 9 -9 13 -8 13 0 0 6 -3 11
-7 12 -5 0 -16 2 -26 4 -9 2 -14 -1 -11 -7z"/>
<path d="M395 6141 c-3 -5 -2 -12 3 -15 5 -3 9 1 9 9 0 17 -3 19 -12 6z"/>
<path d="M375 6100 c-3 -5 -1 -10 4 -10 6 0 11 5 11 10 0 6 -2 10 -4 10 -3 0
-8 -4 -11 -10z"/>
<path d="M6590 6080 c0 -5 5 -10 11 -10 5 0 7 5 4 10 -3 6 -8 10 -11 10 -2 0
-4 -4 -4 -10z"/>
<path d="M375 6060 c3 -5 8 -10 11 -10 2 0 4 5 4 10 0 6 -5 10 -11 10 -5 0 -7
-4 -4 -10z"/>
<path d="M376 6018 c3 -4 11 -5 19 -1 21 7 19 12 -4 10 -11 0 -18 -5 -15 -9z"/>
<path d="M6575 6020 c3 -5 8 -10 11 -10 2 0 4 5 4 10 0 6 -5 10 -11 10 -5 0
-7 -4 -4 -10z"/>
<path d="M6599 5973 c-12 -16 -12 -17 2 -6 9 7 20 9 24 5 5 -4 5 -1 1 6 -9 16
-11 15 -27 -5z"/>
<path d="M6590 5945 c0 -7 30 -13 34 -7 3 4 -4 9 -15 9 -10 1 -19 0 -19 -2z"/>
<path d="M6580 5922 c0 -5 7 -9 15 -9 8 0 12 4 9 9 -3 4 -9 8 -15 8 -5 0 -9
-4 -9 -8z"/>
<path d="M375 5900 c-4 -6 -1 -9 7 -8 7 2 12 -3 10 -10 -1 -8 2 -11 8 -7 8 5
7 11 -1 21 -14 17 -16 17 -24 4z"/>
<path d="M6635 5880 c-3 -5 -1 -10 4 -10 6 0 11 5 11 10 0 6 -2 10 -4 10 -3 0
-8 -4 -11 -10z"/>
<path d="M410 5859 c0 -5 5 -7 10 -4 6 3 10 8 10 11 0 2 -4 4 -10 4 -5 0 -10
-5 -10 -11z"/>
<path d="M356 5838 c3 -5 10 -6 15 -3 13 9 11 12 -6 12 -8 0 -12 -4 -9 -9z"/>
<path d="M390 5840 c0 -5 5 -10 11 -10 5 0 7 5 4 10 -3 6 -8 10 -11 10 -2 0
-4 -4 -4 -10z"/>
<path d="M6575 5839 c-3 -4 2 -6 10 -5 21 3 28 13 10 13 -9 0 -18 -4 -20 -8z"/>
<path d="M6593 5785 c0 -8 4 -12 9 -9 5 3 6 10 3 15 -9 13 -12 11 -12 -6z"/>
<path d="M6599 5753 c-13 -16 -12 -17 4 -4 16 13 21 21 13 21 -2 0 -10 -8 -17
-17z"/>
<path d="M376 5742 c-3 -4 4 -9 15 -9 23 -2 25 3 4 10 -8 4 -16 3 -19 -1z"/>
<path d="M6575 5720 c-3 -5 -1 -10 4 -10 6 0 11 5 11 10 0 6 -2 10 -4 10 -3 0
-8 -4 -11 -10z"/>
<path d="M6625 5720 c-3 -6 1 -7 9 -4 18 7 21 14 7 14 -6 0 -13 -4 -16 -10z"/>
<path d="M399 5715 c-1 -3 -2 -8 -3 -12 -1 -5 -5 -15 -10 -23 -7 -12 -6 -13 4
-3 13 12 23 43 14 43 -2 0 -5 -2 -5 -5z"/>
<path d="M6606 5678 c3 -5 10 -6 15 -3 13 9 11 12 -6 12 -8 0 -12 -4 -9 -9z"/>
<path d="M406 5642 c-3 -5 1 -9 9 -9 8 0 12 4 9 9 -3 4 -7 8 -9 8 -2 0 -6 -4
-9 -8z"/>
<path d="M6575 5600 c-3 -5 -1 -10 4 -10 6 0 11 5 11 10 0 6 -2 10 -4 10 -3 0
-8 -4 -11 -10z"/>
<path d="M410 5559 c0 -5 5 -7 10 -4 6 3 10 8 10 11 0 2 -4 4 -10 4 -5 0 -10
-5 -10 -11z"/>
<path d="M6576 5522 c-3 -5 1 -9 9 -9 8 0 12 4 9 9 -3 4 -7 8 -9 8 -2 0 -6 -4
-9 -8z"/>
<path d="M6577 5479 c7 -7 15 -10 18 -7 3 3 -2 9 -12 12 -14 6 -15 5 -6 -5z"/>
<path d="M393 5448 c-2 -18 0 -20 7 -8 12 18 13 30 2 30 -4 0 -9 -10 -9 -22z"/>
<path d="M6606 5398 c3 -5 10 -6 15 -3 13 9 11 12 -6 12 -8 0 -12 -4 -9 -9z"/>
<path d="M6595 5339 c-3 -4 2 -6 10 -5 21 3 28 13 10 13 -9 0 -18 -4 -20 -8z"/>
<path d="M410 5299 c0 -5 5 -7 10 -4 6 3 10 8 10 11 0 2 -4 4 -10 4 -5 0 -10
-5 -10 -11z"/>
<path d="M6596 5233 c-6 -14 -5 -15 5 -6 7 7 10 15 7 18 -3 3 -9 -2 -12 -12z"/>
<path d="M393 5128 c-2 -18 0 -20 7 -8 12 18 13 30 2 30 -4 0 -9 -10 -9 -22z"/>
<path d="M6588 5144 c6 -3 9 -11 5 -17 -5 -8 -2 -8 9 0 8 7 18 11 21 8 4 -3 5
-2 2 2 -3 4 -16 8 -28 9 -12 2 -16 0 -9 -2z"/>
<path d="M6606 5082 c-3 -5 1 -9 9 -9 8 0 12 4 9 9 -3 4 -7 8 -9 8 -2 0 -6 -4
-9 -8z"/>
<path d="M410 5059 c0 -5 5 -7 10 -4 6 3 10 8 10 11 0 2 -4 4 -10 4 -5 0 -10
-5 -10 -11z"/>
<path d="M356 5038 c3 -5 10 -6 15 -3 13 9 11 12 -6 12 -8 0 -12 -4 -9 -9z"/>
<path d="M390 5040 c0 -5 5 -10 11 -10 5 0 7 5 4 10 -3 6 -8 10 -11 10 -2 0
-4 -4 -4 -10z"/>
<path d="M6580 4959 c0 -5 5 -7 10 -4 6 3 10 8 10 11 0 2 -4 4 -10 4 -5 0 -10
-5 -10 -11z"/>
<path d="M376 4942 c-3 -4 4 -9 15 -9 23 -2 25 3 4 10 -8 4 -16 3 -19 -1z"/>
<path d="M6635 4920 c-3 -5 -1 -10 4 -10 6 0 11 5 11 10 0 6 -2 10 -4 10 -3 0
-8 -4 -11 -10z"/>
<path d="M410 4899 c0 -5 5 -7 10 -4 6 3 10 8 10 11 0 2 -4 4 -10 4 -5 0 -10
-5 -10 -11z"/>
<path d="M356 4878 c3 -5 10 -6 15 -3 13 9 11 12 -6 12 -8 0 -12 -4 -9 -9z"/>
<path d="M390 4880 c0 -5 5 -10 11 -10 5 0 7 5 4 10 -3 6 -8 10 -11 10 -2 0
-4 -4 -4 -10z"/>
<path d="M6575 4879 c-3 -4 2 -6 10 -5 21 3 28 13 10 13 -9 0 -18 -4 -20 -8z"/>
<path d="M6593 4825 c0 -8 4 -12 9 -9 5 3 6 10 3 15 -9 13 -12 11 -12 -6z"/>
<path d="M6599 4793 c-13 -16 -12 -17 4 -4 9 7 17 15 17 17 0 8 -8 3 -21 -13z"/>
<path d="M376 4782 c-3 -4 4 -9 15 -9 23 -2 25 3 4 10 -8 4 -16 3 -19 -1z"/>
<path d="M6575 4760 c-3 -5 -1 -10 4 -10 6 0 11 5 11 10 0 6 -2 10 -4 10 -3 0
-8 -4 -11 -10z"/>
<path d="M6625 4760 c-3 -6 1 -7 9 -4 18 7 21 14 7 14 -6 0 -13 -4 -16 -10z"/>
<path d="M400 4720 c-12 -7 -10 -9 8 -7 12 0 22 5 22 9 0 11 -12 10 -30 -2z"/>
<path d="M6593 4695 c0 -8 4 -12 9 -9 5 3 6 10 3 15 -9 13 -12 11 -12 -6z"/>
<path d="M396 4642 c-3 -5 1 -9 9 -9 8 0 12 4 9 9 -3 4 -7 8 -9 8 -2 0 -6 -4
-9 -8z"/>
<path d="M6575 4640 c-3 -5 -1 -10 4 -10 6 0 11 5 11 10 0 6 -2 10 -4 10 -3 0
-8 -4 -11 -10z"/>
<path d="M6576 4562 c-3 -5 1 -9 9 -9 8 0 12 4 9 9 -3 4 -7 8 -9 8 -2 0 -6 -4
-9 -8z"/>
<path d="M6577 4519 c7 -7 15 -10 18 -7 3 3 -2 9 -12 12 -14 6 -15 5 -6 -5z"/>
<path d="M410 4499 c0 -5 5 -7 10 -4 6 3 10 8 10 11 0 2 -4 4 -10 4 -5 0 -10
-5 -10 -11z"/>
<path d="M393 4328 c-2 -18 0 -20 7 -8 12 18 13 30 2 30 -4 0 -9 -10 -9 -22z"/>
<path d="M6580 4319 c0 -5 5 -7 10 -4 6 3 10 8 10 11 0 2 -4 4 -10 4 -5 0 -10
-5 -10 -11z"/>
<path d="M6635 4280 c-3 -5 -1 -10 4 -10 6 0 11 5 11 10 0 6 -2 10 -4 10 -3 0
-8 -4 -11 -10z"/>
<path d="M6575 4239 c-3 -4 2 -6 10 -5 21 3 28 13 10 13 -9 0 -18 -4 -20 -8z"/>
<path d="M395 4191 c-6 -11 13 -26 22 -17 4 3 1 6 -6 6 -7 0 -9 5 -6 10 3 6 4
10 1 10 -3 0 -7 -4 -11 -9z"/>
<path d="M6593 4185 c0 -8 4 -12 9 -9 5 3 6 10 3 15 -9 13 -12 11 -12 -6z"/>
<path d="M6599 4153 c-13 -16 -12 -17 4 -4 9 7 17 15 17 17 0 8 -8 3 -21 -13z"/>
<path d="M6575 4120 c-3 -5 -1 -10 4 -10 6 0 11 5 11 10 0 6 -2 10 -4 10 -3 0
-8 -4 -11 -10z"/>
<path d="M6625 4120 c-3 -6 1 -7 9 -4 18 7 21 14 7 14 -6 0 -13 -4 -16 -10z"/>
<path d="M410 4099 c0 -5 5 -7 10 -4 6 3 10 8 10 11 0 2 -4 4 -10 4 -5 0 -10
-5 -10 -11z"/>
<path d="M356 4078 c3 -5 10 -6 15 -3 13 9 11 12 -6 12 -8 0 -12 -4 -9 -9z"/>
<path d="M390 4080 c0 -5 5 -10 11 -10 5 0 7 5 4 10 -3 6 -8 10 -11 10 -2 0
-4 -4 -4 -10z"/>
<path d="M6593 4055 c0 -8 4 -12 9 -9 5 3 6 10 3 15 -9 13 -12 11 -12 -6z"/>
<path d="M6575 4000 c-3 -5 -1 -10 4 -10 6 0 11 5 11 10 0 6 -2 10 -4 10 -3 0
-8 -4 -11 -10z"/>
<path d="M376 3982 c-3 -4 4 -9 15 -9 23 -2 25 3 4 10 -8 4 -16 3 -19 -1z"/>
<path d="M410 3939 c0 -5 5 -7 10 -4 6 3 10 8 10 11 0 2 -4 4 -10 4 -5 0 -10
-5 -10 -11z"/>
<path d="M356 3918 c3 -5 10 -6 15 -3 13 9 11 12 -6 12 -8 0 -12 -4 -9 -9z"/>
<path d="M390 3920 c0 -5 5 -10 11 -10 5 0 7 5 4 10 -3 6 -8 10 -11 10 -2 0
-4 -4 -4 -10z"/>
<path d="M6576 3922 c-3 -5 1 -9 9 -9 8 0 12 4 9 9 -3 4 -7 8 -9 8 -2 0 -6 -4
-9 -8z"/>
<path d="M6577 3879 c7 -7 15 -10 18 -7 3 3 -2 9 -12 12 -14 6 -15 5 -6 -5z"/>
<path d="M376 3822 c-3 -4 4 -9 15 -9 23 -2 25 3 4 10 -8 4 -16 3 -19 -1z"/>
<path d="M6606 3798 c3 -5 10 -6 15 -3 13 9 11 12 -6 12 -8 0 -12 -4 -9 -9z"/>
<path d="M399 3795 c-1 -3 -2 -8 -3 -12 -1 -5 -5 -15 -10 -23 -7 -12 -6 -13 4
-3 13 12 23 43 14 43 -2 0 -5 -2 -5 -5z"/>
<path d="M6595 3739 c-3 -4 2 -6 10 -5 21 3 28 13 10 13 -9 0 -18 -4 -20 -8z"/>
<path d="M406 3722 c-3 -5 1 -9 9 -9 8 0 12 4 9 9 -3 4 -7 8 -9 8 -2 0 -6 -4
-9 -8z"/>
<path d="M410 3639 c0 -5 5 -7 10 -4 6 3 10 8 10 11 0 2 -4 4 -10 4 -5 0 -10
-5 -10 -11z"/>
<path d="M6596 3633 c-6 -14 -5 -15 5 -6 7 7 10 15 7 18 -3 3 -9 -2 -12 -12z"/>
<path d="M393 3528 c-2 -18 0 -20 7 -8 12 18 13 30 2 30 -4 0 -9 -10 -9 -22z"/>
<path d="M6588 3544 c6 -3 9 -11 5 -17 -5 -8 -2 -8 9 0 8 7 18 11 21 8 4 -3 5
-2 2 2 -3 4 -16 8 -28 9 -12 2 -16 0 -9 -2z"/>
<path d="M6580 3480 c0 -5 5 -10 11 -10 5 0 7 5 4 10 -3 6 -8 10 -11 10 -2 0
-4 -4 -4 -10z"/>
<path d="M410 3379 c0 -5 5 -7 10 -4 6 3 10 8 10 11 0 2 -4 4 -10 4 -5 0 -10
-5 -10 -11z"/>
<path d="M6580 3360 c0 -5 5 -10 11 -10 5 0 7 5 4 10 -3 6 -8 10 -11 10 -2 0
-4 -4 -4 -10z"/>
<path d="M6635 3321 c-3 -5 -2 -12 3 -15 5 -3 9 1 9 9 0 17 -3 19 -12 6z"/>
<path d="M6575 3279 c-3 -4 2 -6 10 -5 21 3 28 13 10 13 -9 0 -18 -4 -20 -8z"/>
<path d="M393 3208 c-2 -18 0 -20 7 -8 12 18 13 30 2 30 -4 0 -9 -10 -9 -22z"/>
<path d="M6597 3192 c-15 -16 -15 -19 -2 -19 8 0 13 3 10 5 -3 3 0 11 6 19 17
20 5 16 -14 -5z"/>
<path d="M410 3139 c0 -5 5 -7 10 -4 6 3 10 8 10 11 0 2 -4 4 -10 4 -5 0 -10
-5 -10 -11z"/>
<path d="M6588 3144 c6 -3 9 -11 5 -17 -5 -8 -2 -8 9 0 8 7 18 11 21 8 4 -3 5
-2 2 2 -3 4 -16 8 -28 9 -12 2 -16 0 -9 -2z"/>
<path d="M356 3118 c3 -5 10 -6 15 -3 13 9 11 12 -6 12 -8 0 -12 -4 -9 -9z"/>
<path d="M390 3120 c0 -5 5 -10 11 -10 5 0 7 5 4 10 -3 6 -8 10 -11 10 -2 0
-4 -4 -4 -10z"/>
<path d="M6596 3078 c3 -5 10 -6 15 -3 13 9 11 12 -6 12 -8 0 -12 -4 -9 -9z"/>
<path d="M376 3022 c-3 -4 4 -9 15 -9 23 -2 25 3 4 10 -8 4 -16 3 -19 -1z"/>
<path d="M6593 2985 c0 -8 4 -12 9 -9 5 3 6 10 3 15 -9 13 -12 11 -12 -6z"/>
<path d="M410 2979 c0 -5 5 -7 10 -4 6 3 10 8 10 11 0 2 -4 4 -10 4 -5 0 -10
-5 -10 -11z"/>
<path d="M356 2958 c3 -5 10 -6 15 -3 13 9 11 12 -6 12 -8 0 -12 -4 -9 -9z"/>
<path d="M390 2960 c0 -5 5 -10 11 -10 5 0 7 5 4 10 -3 6 -8 10 -11 10 -2 0
-4 -4 -4 -10z"/>
<path d="M6590 2930 c-9 -6 -10 -10 -3 -10 6 0 15 5 18 10 8 12 4 12 -15 0z"/>
<path d="M6590 2900 c0 -4 7 -7 15 -6 23 3 26 12 5 13 -11 1 -20 -2 -20 -7z"/>
<path d="M376 2862 c-3 -4 4 -9 15 -9 23 -2 25 3 4 10 -8 4 -16 3 -19 -1z"/>
<path d="M400 2800 c-12 -7 -10 -9 8 -7 12 0 22 5 22 9 0 11 -12 10 -30 -2z"/>
<path d="M6587 2735 c3 -8 9 -12 14 -9 12 7 11 11 -5 17 -10 4 -13 1 -9 -8z"/>
<path d="M396 2722 c-3 -5 1 -9 9 -9 8 0 12 4 9 9 -3 4 -7 8 -9 8 -2 0 -6 -4
-9 -8z"/>
<path d="M6585 2679 c-4 -6 -4 -13 -1 -16 3 -4 6 -1 6 6 0 7 5 9 12 5 7 -4 8
-3 4 4 -9 15 -13 15 -21 1z"/>
<path d="M6576 2633 c-6 -14 -5 -15 5 -6 7 7 10 15 7 18 -3 3 -9 -2 -12 -12z"/>
<path d="M410 2579 c0 -5 5 -7 10 -4 6 3 10 8 10 11 0 2 -4 4 -10 4 -5 0 -10
-5 -10 -11z"/>
<path d="M6588 2584 c6 -3 9 -11 5 -17 -5 -8 -2 -8 9 0 8 7 18 11 21 8 4 -3 5
-2 2 2 -3 4 -16 8 -28 9 -12 2 -16 0 -9 -2z"/>
<path d="M6593 2511 c0 -11 5 -18 9 -15 4 3 5 11 1 19 -7 21 -12 19 -10 -4z"/>
<path d="M6599 2453 c-12 -16 -12 -17 2 -6 9 7 20 9 24 5 5 -4 5 -1 1 6 -9 16
-11 15 -27 -5z"/>
<path d="M393 2408 c-2 -18 0 -20 7 -8 12 18 13 30 2 30 -4 0 -9 -10 -9 -22z"/>
<path d="M6590 2420 c0 -4 7 -7 15 -6 23 3 26 12 5 13 -11 1 -20 -2 -20 -7z"/>
<path d="M6588 2363 c10 -4 10 -8 0 -21 -12 -15 -11 -16 4 -3 19 14 15 32 -5
30 -8 0 -8 -2 1 -6z"/>
<path d="M6596 2322 c-3 -5 1 -9 9 -9 8 0 12 4 9 9 -3 4 -7 8 -9 8 -2 0 -6 -4
-9 -8z"/>
<path d="M395 2271 c-6 -11 13 -26 22 -17 4 3 1 6 -6 6 -7 0 -9 5 -6 10 3 6 4
10 1 10 -3 0 -7 -4 -11 -9z"/>
<path d="M6581 2244 c0 -11 3 -14 6 -6 3 7 2 16 -1 19 -3 4 -6 -2 -5 -13z"/>
<path d="M410 2179 c0 -5 5 -7 10 -4 6 3 10 8 10 11 0 2 -4 4 -10 4 -5 0 -10
-5 -10 -11z"/>
<path d="M6593 2173 c0 -9 4 -10 14 -2 7 6 13 12 13 14 0 1 -6 2 -13 2 -8 0
-14 -6 -14 -14z"/>
<path d="M356 2158 c3 -5 10 -6 15 -3 13 9 11 12 -6 12 -8 0 -12 -4 -9 -9z"/>
<path d="M390 2160 c0 -5 5 -10 11 -10 5 0 7 5 4 10 -3 6 -8 10 -11 10 -2 0
-4 -4 -4 -10z"/>
<path d="M6575 2080 c-3 -5 -1 -10 4 -10 6 0 11 5 11 10 0 6 -2 10 -4 10 -3 0
-8 -4 -11 -10z"/>
<path d="M376 2062 c-3 -4 4 -9 15 -9 23 -2 25 3 4 10 -8 4 -16 3 -19 -1z"/>
<path d="M6599 2048 c-5 -18 -6 -38 -1 -34 7 8 12 36 6 36 -2 0 -4 -1 -5 -2z"/>
<path d="M410 2019 c0 -5 5 -7 10 -4 6 3 10 8 10 11 0 2 -4 4 -10 4 -5 0 -10
-5 -10 -11z"/>
<path d="M356 1998 c3 -5 10 -6 15 -3 13 9 11 12 -6 12 -8 0 -12 -4 -9 -9z"/>
<path d="M390 2000 c0 -5 5 -10 11 -10 5 0 7 5 4 10 -3 6 -8 10 -11 10 -2 0
-4 -4 -4 -10z"/>
<path d="M6590 1970 c-9 -6 -10 -10 -3 -10 6 0 15 5 18 10 8 12 4 12 -15 0z"/>
<path d="M6590 1940 c0 -4 7 -7 15 -6 23 3 26 12 5 13 -11 1 -20 -2 -20 -7z"/>
<path d="M376 1902 c-3 -4 4 -9 15 -9 23 -2 25 3 4 10 -8 4 -16 3 -19 -1z"/>
<path d="M399 1875 c-1 -3 -2 -8 -3 -12 -1 -5 -5 -15 -10 -23 -7 -12 -6 -13 4
-3 13 12 23 43 14 43 -2 0 -5 -2 -5 -5z"/>
<path d="M406 1802 c-3 -5 1 -9 9 -9 8 0 12 4 9 9 -3 4 -7 8 -9 8 -2 0 -6 -4
-9 -8z"/>
<path d="M6588 1783 c6 -2 9 -10 6 -15 -4 -7 -2 -8 5 -4 13 9 5 26 -12 25 -9
0 -8 -2 1 -6z"/>
<path d="M410 1719 c0 -5 5 -7 10 -4 6 3 10 8 10 11 0 2 -4 4 -10 4 -5 0 -10
-5 -10 -11z"/>
<path d="M6581 1684 c0 -11 3 -14 6 -6 3 7 2 16 -1 19 -3 4 -6 -2 -5 -13z"/>
<path d="M6595 1659 c-3 -4 2 -6 10 -5 21 3 28 13 10 13 -9 0 -18 -4 -20 -8z"/>
<path d="M393 1608 c-2 -18 0 -20 7 -8 12 18 13 30 2 30 -4 0 -9 -10 -9 -22z"/>
<path d="M6594 1479 c0 -15 3 -26 8 -23 5 3 6 10 2 15 -3 5 -1 16 5 23 8 9 7
13 -2 13 -8 0 -13 -12 -13 -28z"/>
<path d="M410 1459 c0 -5 5 -7 10 -4 6 3 10 8 10 11 0 2 -4 4 -10 4 -5 0 -10
-5 -10 -11z"/>
<path d="M6588 1403 c10 -4 10 -8 0 -21 -12 -15 -11 -16 4 -3 19 14 15 32 -5
30 -8 0 -8 -2 1 -6z"/>
<path d="M6596 1362 c-3 -5 1 -9 9 -9 8 0 12 4 9 9 -3 4 -7 8 -9 8 -2 0 -6 -4
-9 -8z"/>
<path d="M393 1288 c-2 -18 0 -20 7 -8 12 18 13 30 2 30 -4 0 -9 -10 -9 -22z"/>
<path d="M6581 1284 c0 -11 3 -14 6 -6 3 7 2 16 -1 19 -3 4 -6 -2 -5 -13z"/>
<path d="M6595 1259 c-3 -4 2 -6 10 -5 21 3 28 13 10 13 -9 0 -18 -4 -20 -8z"/>
<path d="M410 1219 c0 -5 5 -7 10 -4 6 3 10 8 10 11 0 2 -4 4 -10 4 -5 0 -10
-5 -10 -11z"/>
<path d="M356 1198 c3 -5 10 -6 15 -3 13 9 11 12 -6 12 -8 0 -12 -4 -9 -9z"/>
<path d="M390 1200 c0 -5 5 -10 11 -10 5 0 7 5 4 10 -3 6 -8 10 -11 10 -2 0
-4 -4 -4 -10z"/>
<path d="M6581 1194 c0 -11 3 -14 6 -6 3 7 2 16 -1 19 -3 4 -6 -2 -5 -13z"/>
<path d="M6610 1140 c0 -5 5 -10 11 -10 5 0 7 5 4 10 -3 6 -8 10 -11 10 -2 0
-4 -4 -4 -10z"/>
<path d="M376 1102 c-3 -4 4 -9 15 -9 23 -2 25 3 4 10 -8 4 -16 3 -19 -1z"/>
<path d="M6588 1092 c4 -11 1 -13 -9 -7 -8 5 -11 4 -6 -1 10 -11 58 -14 51 -2
-3 4 -10 5 -16 2 -7 -5 -9 -2 -6 8 4 8 1 15 -7 15 -8 0 -11 -7 -7 -15z"/>
<path d="M410 1059 c0 -5 5 -7 10 -4 6 3 10 8 10 11 0 2 -4 4 -10 4 -5 0 -10
-5 -10 -11z"/>
<path d="M356 1038 c3 -5 10 -6 15 -3 13 9 11 12 -6 12 -8 0 -12 -4 -9 -9z"/>
<path d="M390 1040 c0 -5 5 -10 11 -10 5 0 7 5 4 10 -3 6 -8 10 -11 10 -2 0
-4 -4 -4 -10z"/>
<path d="M6594 999 c0 -16 2 -26 5 -23 3 3 6 13 6 22 0 10 6 16 15 14 8 -2 11
0 7 4 -18 18 -33 11 -33 -17z"/>
<path d="M376 942 c-3 -4 4 -9 15 -9 23 -2 25 3 4 10 -8 4 -16 3 -19 -1z"/>
<path d="M400 880 c-12 -7 -10 -9 8 -7 12 0 22 5 22 9 0 11 -12 10 -30 -2z"/>
<path d="M6576 873 c-6 -14 -5 -15 5 -6 7 7 10 15 7 18 -3 3 -9 -2 -12 -12z"/>
<path d="M6593 813 c0 -9 4 -10 14 -2 7 6 13 12 13 14 0 1 -6 2 -13 2 -8 0
-14 -6 -14 -14z"/>
<path d="M390 806 c0 -2 7 -7 16 -10 8 -3 12 -2 9 4 -6 10 -25 14 -25 6z"/>
<path d="M6589 757 c6 -8 7 -18 3 -22 -4 -5 -1 -5 6 -1 10 6 10 11 1 22 -6 8
-14 14 -16 14 -3 0 0 -6 6 -13z"/>
<path d="M393 745 c0 -8 4 -15 9 -15 4 0 8 4 8 9 0 6 -4 12 -8 15 -5 3 -9 -1
-9 -9z"/>
<path d="M6587 707 c-3 -8 1 -14 8 -14 7 0 11 6 8 14 -3 7 -6 13 -8 13 -2 0
-5 -6 -8 -13z"/>
<path d="M6620 686 c0 -2 8 -10 18 -17 15 -13 16 -12 3 4 -13 16 -21 21 -21
13z"/>
<path d="M376 658 c3 -5 10 -6 15 -3 13 9 11 12 -6 12 -8 0 -12 -4 -9 -9z"/>
<path d="M413 663 c4 -3 1 -13 -6 -22 -11 -14 -10 -14 5 -2 16 12 16 31 1 31
-4 0 -3 -3 0 -7z"/>
<path d="M6574 658 c-4 -7 -4 -10 1 -6 4 4 15 2 24 -5 14 -11 14 -10 2 6 -16
20 -18 21 -27 5z"/>
<path d="M6535 541 c-3 -5 0 -13 6 -17 7 -4 9 -3 5 4 -3 5 0 13 6 15 9 4 10 6
1 6 -6 1 -14 -3 -18 -8z"/>
<path d="M496 527 c3 -10 9 -15 12 -12 3 3 0 11 -7 18 -10 9 -11 8 -5 -6z"/>
<path d="M430 526 c0 -2 7 -7 16 -10 8 -3 12 -2 9 4 -6 10 -25 14 -25 6z"/>
<path d="M6500 514 c0 -8 -4 -13 -10 -9 -5 3 -17 -6 -26 -20 -11 -17 -23 -24
-34 -20 -10 3 -23 -2 -31 -12 -7 -10 -9 -15 -5 -11 5 4 20 -4 33 -18 12 -14
23 -21 23 -17 0 5 -5 14 -12 21 -6 6 -8 15 -4 19 4 4 11 1 16 -7 5 -8 12 -11
17 -7 4 5 1 12 -7 17 -13 9 -7 14 12 11 4 0 4 7 1 16 -4 10 -2 14 5 9 6 -3 17
3 25 14 7 11 17 17 22 12 5 -4 5 -1 1 6 -10 17 -26 15 -26 -4z"/>
<path d="M474 511 c4 -5 1 -12 -4 -14 -6 -3 -5 -4 2 -3 15 3 23 26 8 26 -6 0
-9 -4 -6 -9z"/>
<path d="M415 500 c3 -5 8 -10 11 -10 2 0 4 5 4 10 0 6 -5 10 -11 10 -5 0 -7
-4 -4 -10z"/>
<path d="M500 490 c-8 -5 -11 -12 -7 -17 5 -4 12 -1 17 7 5 8 12 11 16 7 4 -3
1 -13 -6 -22 -7 -9 -10 -18 -6 -22 3 -3 6 -1 6 6 0 7 5 9 10 6 6 -4 8 -10 5
-15 -6 -10 34 -50 49 -50 6 0 -1 10 -16 21 -25 18 -29 49 -7 49 4 0 6 -6 3
-14 -3 -9 5 -20 21 -29 25 -13 26 -15 10 -30 -9 -9 -12 -17 -6 -17 6 0 15 9
21 20 6 11 16 17 25 14 8 -4 12 -10 9 -15 -3 -5 -9 -7 -14 -4 -4 3 -11 -2 -14
-11 -6 -15 -4 -15 19 0 14 9 25 12 25 7 0 -6 -8 -15 -17 -20 -10 -6 -14 -11
-10 -11 4 0 24 11 43 24 39 26 34 39 -17 45 -5 0 -8 5 -5 10 4 5 -1 8 -10 7
-8 -1 -19 -8 -23 -14 -4 -7 -11 -5 -19 8 -10 16 -10 20 0 20 9 0 9 3 -1 9 -8
5 -26 8 -41 6 -20 -3 -27 0 -26 12 1 20 -14 26 -34 13z m87 -37 c-4 -3 -2 -12
5 -20 8 -11 7 -12 -6 -7 -9 3 -16 9 -16 13 0 9 11 21 18 21 3 0 2 -3 -1 -7z
m83 -58 c0 -5 5 -3 10 5 6 9 10 10 10 3 0 -21 -14 -22 -38 -3 -27 23 -29 35
-2 18 11 -7 20 -17 20 -23z"/>
<path d="M6513 480 c-3 -11 -10 -17 -16 -13 -6 3 -7 1 -3 -5 10 -17 32 -4 32
18 0 26 -6 26 -13 0z"/>
<path d="M6547 479 c7 -7 15 -10 18 -7 3 3 -2 9 -12 12 -14 6 -15 5 -6 -5z"/>
<path d="M430 458 c0 -4 4 -8 9 -8 6 0 12 4 15 8 3 5 -1 9 -9 9 -8 0 -15 -4
-15 -9z"/>
<path d="M755 420 c-3 -5 1 -10 10 -10 9 0 13 5 10 10 -3 6 -8 10 -10 10 -2 0
-7 -4 -10 -10z"/>
<path d="M6131 416 c-8 -10 -8 -16 3 -25 11 -9 14 -7 14 14 0 29 -2 30 -17 11z"/>
<path d="M6275 416 c-15 -10 -15 -16 -6 -34 7 -13 9 -27 6 -32 -11 -18 -22
-11 -20 13 3 37 -5 50 -20 31 -11 -16 -41 -11 -31 5 3 4 -8 8 -25 9 -24 1 -28
-2 -19 -13 19 -23 -13 -24 -39 -1 -13 11 -21 15 -16 7 6 -11 4 -13 -11 -7 -29
12 -65 15 -59 6 3 -5 13 -7 23 -4 9 3 6 -1 -8 -9 -18 -11 -29 -12 -38 -5 -7 6
-15 8 -19 5 -3 -4 -12 -2 -19 4 -10 8 -17 3 -29 -20 -18 -36 -30 -39 -45 -12
-8 17 -7 19 15 17 13 -2 22 1 19 6 -3 5 -12 7 -18 5 -7 -3 -19 -1 -27 3 -8 6
-20 3 -30 -6 -20 -18 -38 -15 -60 11 -17 19 -18 19 -37 1 -19 -17 -48 -14 -38
3 3 4 -1 8 -9 8 -8 0 -12 -4 -9 -9 3 -4 0 -8 -6 -8 -6 0 -9 -4 -5 -10 3 -5 13
-7 23 -4 14 5 15 4 2 -5 -11 -8 -7 -9 20 -5 35 7 39 -3 4 -10 -11 -3 -26 -6
-34 -9 -8 -2 -12 -2 -7 0 4 3 4 9 1 15 -4 6 -9 5 -14 -3 -5 -7 -18 -13 -29
-14 -11 -1 -18 2 -15 7 3 4 11 8 19 8 8 0 16 4 20 10 3 5 -7 8 -25 5 -17 -2
-30 1 -30 7 0 6 9 8 19 5 23 -6 48 7 32 17 -6 4 -11 2 -11 -5 0 -8 -6 -6 -18
5 -18 15 -20 15 -44 -3 -16 -13 -29 -17 -38 -11 -9 6 -20 4 -31 -6 -20 -18
-38 -15 -61 11 -18 20 -18 20 -37 -2 -15 -18 -21 -20 -30 -9 -6 7 -7 17 -3 22
4 4 -1 2 -10 -5 -15 -11 -21 -11 -33 -1 -9 7 -15 8 -15 2 0 -12 29 -26 50 -23
13 2 13 0 1 -8 -12 -8 -12 -12 -2 -25 7 -9 17 -13 22 -10 5 3 9 0 9 -6 0 -6 5
-8 10 -5 6 3 10 2 10 -3 0 -15 -28 -23 -33 -9 -2 6 -6 4 -10 -5 -4 -13 -1 -16
15 -13 11 3 28 11 38 20 14 12 21 13 43 2 15 -6 27 -15 27 -19 0 -5 5 -8 10
-8 6 0 4 10 -5 23 -15 23 -12 37 8 37 6 0 7 -3 4 -6 -3 -4 -2 -16 4 -26 8 -14
14 -17 22 -9 7 7 6 15 -3 26 -18 21 3 19 23 -3 19 -20 23 -37 7 -27 -5 3 -10
1 -10 -5 0 -6 11 -8 24 -6 14 2 27 0 30 -5 2 -5 3 -4 2 3 -2 7 -8 12 -14 11
-5 -1 -12 4 -15 11 -4 9 3 14 19 14 13 0 21 -4 19 -9 -7 -11 30 -30 40 -21 4
4 6 -2 3 -13 -4 -15 0 -21 12 -21 9 0 17 6 17 13 0 7 -3 11 -5 8 -3 -3 -11 4
-19 15 -9 12 -20 17 -31 13 -15 -6 -15 -5 -3 10 17 21 16 21 37 0 17 -17 18
-17 11 1 -6 15 -4 17 10 11 10 -4 24 -8 31 -8 8 0 19 -9 25 -19 11 -16 13 -15
27 14 8 17 22 34 30 36 12 4 11 1 -2 -15 -22 -24 -23 -33 -3 -33 8 0 15 -4 15
-10 0 -5 5 -10 10 -10 6 0 4 10 -5 23 -15 23 -12 37 8 37 6 0 7 -3 4 -6 -10
-10 13 -45 24 -38 5 3 7 15 4 25 -6 18 -5 19 14 7 13 -8 17 -16 11 -22 -6 -6
-10 -15 -10 -20 0 -6 5 -3 11 6 5 9 16 15 24 12 8 -4 12 -10 9 -15 -3 -5 2 -6
11 -2 9 3 13 9 8 12 -12 8 -10 34 3 38 10 3 13 -7 15 -52 1 -11 3 -14 6 -7 3
6 10 9 16 6 8 -5 8 -2 0 7 -7 7 -13 18 -13 23 1 6 10 0 20 -13 11 -13 20 -20
20 -15 0 4 7 -1 16 -12 14 -18 15 -18 4 4 -6 12 -15 22 -20 22 -6 0 -10 5 -10
11 0 5 4 8 9 5 5 -3 12 1 15 10 6 16 26 11 26 -7 0 -6 -4 -7 -10 -4 -5 3 -10
1 -10 -4 0 -16 20 -13 26 4 4 8 10 13 14 10 5 -3 16 5 26 17 16 22 15 16 -3
-29 -5 -13 -1 -12 17 5 13 12 26 19 29 16 3 -3 -3 -12 -13 -20 -17 -12 -18
-14 -3 -14 9 0 17 -4 17 -10 0 -5 5 -10 11 -10 8 0 8 4 0 14 -34 41 37 58 77
18 12 -12 28 -22 35 -22 6 1 1 7 -12 14 -22 12 -23 14 -6 23 11 7 16 17 12 26
-4 11 -2 14 8 10 8 -3 12 -10 8 -16 -3 -6 -1 -7 5 -3 9 5 9 13 2 27 -10 17 -7
23 11 21 3 -1 6 5 6 12 0 16 -31 18 -52 2z m21 -15 c0 -11 -5 -17 -13 -14 -10
4 -11 9 -2 19 15 18 15 18 15 -5z m-823 -20 c-3 -10 10 -15 30 -12 4 0 7 -4 7
-10 0 -8 5 -7 15 1 9 7 26 14 39 14 13 1 32 8 42 16 10 8 15 10 11 4 -8 -14
16 -37 29 -26 4 4 3 0 -4 -9 -6 -9 -10 -18 -7 -21 3 -2 -5 -4 -16 -3 -12 1
-27 9 -34 19 -9 11 -15 13 -20 6 -3 -5 -11 -8 -16 -4 -13 8 -40 -16 -32 -29 4
-6 1 -7 -7 -2 -8 5 -25 10 -39 11 -46 5 -62 10 -59 20 2 5 15 8 29 8 16 -1 26
4 26 13 0 8 -6 12 -14 9 -8 -4 -11 -1 -8 5 9 13 31 5 28 -10z m320 0 c-3 -10
9 -15 32 -12 6 1 1 -7 -11 -17 -11 -9 -18 -24 -16 -32 4 -11 1 -10 -12 3 -10
9 -22 15 -27 12 -5 -4 -9 -2 -9 4 0 5 8 12 18 15 10 4 19 13 19 22 0 8 -6 13
-14 10 -8 -4 -11 -1 -8 5 9 13 31 5 28 -10z m441 -2 c9 7 12 4 13 -12 2 -17 0
-19 -7 -7 -8 12 -10 12 -10 1 0 -11 -3 -11 -15 -1 -12 10 -15 10 -16 -1 0 -10
-2 -11 -6 -1 -2 6 -9 12 -14 12 -6 0 -7 -6 -3 -12 4 -7 4 -10 -1 -6 -4 4 -14
3 -22 -4 -11 -8 -12 -7 -7 5 3 8 12 18 20 21 9 4 12 11 8 18 -5 7 4 5 20 -5
19 -13 31 -15 40 -8z m-115 -2 c12 4 13 3 3 -5 -8 -5 -13 -13 -13 -17 2 -12
-28 -15 -35 -4 -3 6 -11 5 -20 -2 -17 -14 -67 -21 -59 -9 3 5 1 12 -5 15 -13
8 -42 -14 -34 -26 3 -5 1 -9 -5 -9 -17 0 -22 18 -7 27 8 4 14 12 13 17 -3 12
51 17 58 5 4 -5 14 -5 26 1 10 6 19 7 19 3 0 -4 5 -2 12 5 7 7 16 8 21 3 5 -5
17 -7 26 -4z m-231 -22 c-3 -3 -13 -2 -22 1 -14 5 -15 9 -4 15 13 8 36 -6 26
-16z m-320 -40 c-3 -3 -9 2 -12 12 -6 14 -5 15 5 6 7 -7 10 -15 7 -18z m320 0
c-3 -3 -9 2 -12 12 -6 14 -5 15 5 6 7 -7 10 -15 7 -18z"/>
<path d="M5595 370 c-4 -6 -3 -16 3 -22 6 -6 12 -6 17 2 4 6 3 16 -3 22 -6 6
-12 6 -17 -2z"/>
<path d="M5466 352 c-2 -4 4 -8 14 -8 10 0 16 4 14 8 -3 4 -9 8 -14 8 -5 0
-11 -4 -14 -8z"/>
<path d="M6075 370 c-3 -5 -5 -10 -3 -11 33 -8 38 -7 27 7 -14 17 -16 17 -24
4z"/>
<path d="M5990 366 c0 -2 7 -9 15 -16 13 -11 14 -10 9 4 -5 14 -24 23 -24 12z"/>
<path d="M6040 360 c-9 -6 -10 -10 -3 -10 6 0 15 5 18 10 8 12 4 12 -15 0z"/>
<path d="M496 407 c2 -7 15 -13 29 -13 33 -2 32 2 -4 14 -22 8 -29 8 -25 -1z"/>
<path d="M1356 404 c-3 -8 -2 -12 3 -9 6 3 14 -3 20 -12 9 -16 10 -16 8 4 -2
27 -23 38 -31 17z"/>
<path d="M1745 393 c-18 -28 -18 -28 2 -11 16 15 22 15 39 5 26 -17 71 -21 80
-6 4 7 3 10 -3 6 -6 -4 -16 0 -23 8 -11 13 -14 13 -25 -2 -11 -15 -13 -15 -24
5 -15 29 -25 28 -46 -5z"/>
<path d="M1890 399 c-10 -18 -10 -19 8 -10 13 7 22 7 31 -2 10 -9 12 -9 9 3
-7 33 -33 38 -48 9z"/>
<path d="M3276 404 c-3 -8 -2 -12 3 -9 6 3 14 -3 20 -12 9 -16 10 -16 8 4 -2
27 -23 38 -31 17z"/>
<path d="M3665 394 c-10 -15 -22 -23 -31 -20 -12 4 -12 2 -4 -15 6 -11 15 -17
21 -14 5 4 12 0 15 -9 3 -9 12 -12 21 -9 11 4 14 2 9 -5 -3 -6 3 -16 15 -22
15 -8 19 -9 15 -1 -4 6 -2 12 3 12 6 1 17 2 24 3 6 1 17 -5 24 -14 7 -8 13
-10 13 -4 0 5 -5 15 -11 21 -9 9 -7 12 10 10 11 -1 21 -4 21 -8 0 -4 7 -9 14
-12 11 -4 13 -1 9 10 -4 11 -2 14 5 9 7 -4 12 -2 12 5 0 7 3 9 7 6 3 -4 13 -1
21 6 13 10 14 9 8 -10 -9 -29 21 -47 46 -29 10 7 14 17 10 21 -4 5 1 5 11 2
10 -4 20 -7 23 -7 2 0 1 -8 -3 -17 -3 -10 8 -2 25 17 17 19 31 29 32 22 0 -7
5 -10 12 -6 7 4 8 3 4 -5 -4 -6 -12 -9 -17 -6 -5 4 -9 1 -9 -4 0 -6 7 -11 15
-11 8 0 15 -4 15 -10 0 -5 5 -10 11 -10 8 0 8 4 0 14 -6 8 -11 18 -10 22 1 5
1 18 0 29 -1 15 -3 17 -10 6 -6 -10 -12 -5 -22 18 -8 17 -16 31 -20 31 -3 0
-13 -15 -22 -32 -10 -20 -15 -24 -11 -10 3 12 1 22 -5 22 -6 0 -10 -3 -10 -7
5 -29 -3 -31 -36 -12 -19 12 -33 24 -30 28 2 4 -2 8 -10 8 -8 0 -12 -4 -9 -9
6 -9 -25 -6 -42 5 -7 4 -14 1 -17 -7 -7 -16 -32 -15 -49 2 -8 8 -14 7 -23 -5
-11 -15 -13 -15 -24 5 -15 29 -25 28 -46 -4z m32 9 c-4 -3 1 -12 11 -19 13 -9
20 -10 31 -1 12 10 13 9 7 -1 -6 -10 -1 -13 20 -11 16 2 35 8 43 14 10 7 15 6
18 -2 3 -7 9 -13 14 -13 6 0 7 6 3 13 -4 6 2 3 14 -7 23 -20 22 -28 -6 -34
-41 -9 -57 -8 -64 1 -8 13 -89 17 -82 5 3 -5 9 -6 14 -3 4 3 10 -2 14 -10 3
-8 4 -15 2 -15 -3 0 -12 -3 -21 -6 -9 -4 -15 -3 -14 2 4 22 -2 33 -15 28 -8
-3 -17 0 -21 5 -3 6 -12 8 -18 5 -7 -4 1 7 17 24 17 18 32 32 35 32 2 0 1 -3
-2 -7z m243 -62 c0 -4 -6 -15 -12 -24 -9 -12 -17 -14 -28 -7 -13 9 -13 11 0
19 8 5 18 7 24 4 5 -3 6 -1 2 6 -4 6 -11 9 -16 6 -4 -3 -15 6 -24 20 l-16 24
35 -20 c19 -12 35 -24 35 -28z m64 -1 c-18 -19 -21 -19 -39 -4 -11 8 -14 13
-8 9 8 -4 18 4 25 20 10 23 13 24 27 10 14 -14 13 -17 -5 -35z m-236 -7 c-6
-7 -12 -13 -13 -13 -2 0 -5 6 -8 13 -3 7 3 13 14 13 13 0 15 -3 7 -13z"/>
<path d="M3672 377 c-16 -19 3 -34 22 -18 7 6 17 7 21 3 5 -4 5 -1 1 6 -4 7
-11 10 -16 7 -4 -3 -10 0 -12 6 -2 7 -8 6 -16 -4z"/>
<path d="M3805 370 c-3 -6 -11 -7 -17 -4 -7 4 -8 2 -4 -5 4 -6 11 -9 16 -6 5
3 11 1 15 -5 4 -7 12 -7 24 0 10 5 22 6 26 2 5 -4 5 -1 1 6 -4 7 -12 10 -17 6
-5 -3 -16 -1 -24 6 -9 8 -15 8 -20 0z"/>
<path d="M3990 360 c0 -5 5 -10 10 -10 6 0 10 5 10 10 0 6 -4 10 -10 10 -5 0
-10 -4 -10 -10z"/>
<path d="M4968 401 c-16 -13 -29 -17 -38 -11 -9 6 -20 4 -31 -6 -20 -18 -38
-15 -61 11 -18 20 -18 20 -37 -2 -15 -18 -21 -20 -30 -9 -6 7 -7 17 -3 22 4 4
-1 2 -10 -5 -10 -7 -22 -9 -30 -4 -17 11 -98 12 -98 1 0 -4 3 -8 8 -9 4 0 16
-2 27 -4 10 -2 25 1 32 7 10 8 21 2 44 -23 18 -19 36 -33 41 -32 4 2 8 -2 8
-8 0 -5 5 -7 10 -4 6 3 10 2 10 -3 0 -15 -28 -23 -33 -9 -2 6 -6 4 -10 -5 -4
-13 -1 -16 15 -13 11 3 28 11 38 20 14 12 21 13 43 2 15 -6 27 -15 27 -19 0
-5 5 -8 10 -8 6 0 4 10 -5 23 -15 23 -12 37 8 37 6 0 7 -3 4 -6 -3 -4 -2 -16
4 -26 8 -14 14 -17 22 -9 7 7 6 15 -3 26 -18 21 3 19 23 -3 19 -20 23 -37 7
-27 -5 3 -10 1 -10 -5 0 -6 11 -8 24 -6 14 2 27 0 30 -5 2 -5 3 -4 2 3 -2 7
-8 12 -14 11 -5 -1 -12 4 -15 11 -4 9 3 14 19 14 13 0 21 -4 19 -9 -7 -11 30
-30 40 -21 4 4 6 -2 3 -13 -4 -15 0 -21 12 -21 9 0 17 6 17 13 0 7 -3 11 -5 8
-3 -3 -11 4 -19 15 -9 12 -20 17 -31 13 -15 -6 -15 -5 -3 10 17 21 16 21 37 0
17 -17 18 -17 11 1 -6 15 -4 17 10 11 10 -4 24 -8 31 -8 16 -1 15 -14 -2 -20
-8 -3 -17 -1 -20 6 -3 9 -5 9 -5 0 -2 -22 16 -23 42 -3 21 17 28 18 51 7 14
-7 26 -15 26 -19 0 -5 5 -8 10 -8 6 0 4 10 -5 23 -15 23 -12 37 8 37 6 0 7 -3
4 -6 -3 -4 -2 -16 4 -26 8 -14 14 -17 22 -9 7 7 6 15 -3 26 -18 21 3 19 23 -3
19 -20 23 -37 7 -27 -5 3 -10 1 -10 -5 0 -7 7 -10 15 -6 15 5 39 -26 28 -38
-3 -3 -1 -6 5 -6 6 0 9 12 7 28 -1 15 -8 26 -14 25 -17 -4 -13 14 5 21 22 8
26 8 19 -3 -3 -6 4 -15 16 -21 12 -7 19 -8 15 -2 -3 6 0 13 6 16 7 3 2 3 -12
-1 -22 -5 -23 -4 -12 10 14 16 42 13 42 -6 0 -6 2 -8 5 -5 10 10 -18 58 -44
75 -35 23 -56 26 -71 8 -9 -10 -17 -12 -30 -5 -13 7 -21 5 -30 -5 -16 -19 -41
-15 -62 10 -16 19 -17 19 -36 1 -19 -17 -48 -14 -38 3 3 4 -1 8 -9 8 -8 0 -12
-4 -9 -9 3 -4 0 -8 -6 -8 -6 0 -9 -4 -5 -10 3 -5 13 -7 23 -4 14 5 15 4 2 -5
-11 -8 -7 -9 20 -5 35 7 39 -3 4 -10 -11 -3 -28 -7 -39 -11 -14 -5 -16 -4 -6
3 8 6 9 12 3 16 -6 3 -12 1 -14 -6 -2 -6 -14 -12 -26 -13 -11 -1 -19 2 -16 7
3 4 11 8 19 8 8 0 16 4 20 10 3 5 -7 8 -25 5 -17 -2 -30 1 -30 7 0 6 9 8 19 5
23 -6 48 7 32 17 -6 4 -11 2 -11 -5 0 -8 -6 -6 -18 5 -18 15 -20 15 -44 -3z
m-135 -20 c-3 -10 10 -15 30 -12 4 0 7 -4 7 -10 0 -8 5 -7 15 1 9 7 26 14 39
14 13 1 32 8 42 16 10 8 15 10 11 4 -8 -14 16 -37 29 -26 4 4 3 0 -4 -9 -6 -9
-10 -18 -7 -21 3 -2 -5 -4 -16 -3 -12 1 -27 9 -34 19 -9 11 -15 13 -20 6 -3
-5 -11 -8 -16 -4 -13 8 -40 -16 -32 -29 4 -6 1 -7 -7 -2 -8 5 -25 10 -39 11
-44 5 -62 10 -60 19 0 4 -5 12 -13 16 -7 5 -8 9 -2 9 6 0 14 -3 17 -7 14 -13
54 -11 54 3 0 9 -6 13 -14 10 -8 -4 -11 -1 -8 5 9 13 31 5 28 -10z m320 0 c-3
-10 10 -15 30 -12 4 0 7 -4 7 -10 0 -8 5 -7 15 1 9 7 26 14 39 14 13 1 31 7
39 14 10 9 17 10 22 2 3 -5 11 -10 16 -10 6 0 7 5 3 12 -4 7 -3 8 4 4 6 -4 9
-13 6 -21 -4 -10 0 -13 14 -10 12 2 23 -3 27 -13 3 -9 3 -13 -1 -9 -4 4 -13 2
-21 -4 -9 -9 -13 -8 -13 0 0 7 -8 6 -24 -4 -23 -15 -25 -14 -44 10 -12 15 -23
21 -27 15 -3 -6 -11 -8 -16 -4 -13 8 -40 -16 -33 -28 4 -7 0 -7 -12 0 -11 5
-31 9 -46 7 -31 -4 -38 10 -10 19 10 4 19 13 19 22 0 8 -6 13 -14 10 -8 -4
-11 -1 -8 5 9 13 31 5 28 -10z m-225 -66 c-3 -3 -9 2 -12 12 -6 14 -5 15 5 6
7 -7 10 -15 7 -18z m320 0 c-3 -3 -9 2 -12 12 -6 14 -5 15 5 6 7 -7 10 -15 7
-18z"/>
<path d="M4955 370 c-4 -6 -3 -16 3 -22 6 -6 12 -6 17 2 4 6 3 16 -3 22 -6 6
-12 6 -17 -2z"/>
<path d="M4826 352 c-2 -4 4 -8 14 -8 10 0 16 4 14 8 -3 4 -9 8 -14 8 -5 0
-11 -4 -14 -8z"/>
<path d="M5282 378 c-16 -16 -15 -31 2 -25 7 3 18 1 24 -5 6 -6 12 -6 16 0 3
5 -3 17 -12 26 -14 12 -21 13 -30 4z m29 -15 c12 -16 12 -17 -2 -6 -9 7 -20 9
-24 5 -5 -4 -5 -1 -1 6 9 16 11 15 27 -5z"/>
<path d="M5146 352 c-2 -4 4 -8 14 -8 10 0 16 4 14 8 -3 4 -9 8 -14 8 -5 0
-11 -4 -14 -8z"/>
<path d="M6470 411 c0 -6 4 -12 8 -15 5 -3 9 1 9 9 0 8 -4 15 -9 15 -4 0 -8
-4 -8 -9z"/>
<path d="M430 399 c0 -5 5 -7 10 -4 6 3 10 8 10 11 0 2 -4 4 -10 4 -5 0 -10
-5 -10 -11z"/>
<path d="M825 392 c-3 -9 -3 -13 1 -9 4 4 13 2 21 -4 9 -9 17 -8 27 0 11 10
17 7 30 -10 8 -13 18 -20 21 -17 4 3 -5 17 -19 31 -28 28 -72 33 -81 9z"/>
<path d="M946 395 c-3 -9 -2 -13 4 -10 6 3 16 3 22 -1 21 -13 49 -12 38 1 -5
7 -8 14 -5 17 3 2 -2 5 -10 5 -8 0 -12 -4 -9 -9 7 -12 -10 -10 -23 3 -7 7 -12
6 -17 -6z"/>
<path d="M1460 405 c0 -2 6 -8 13 -14 10 -8 14 -7 14 2 0 8 -6 14 -14 14 -7 0
-13 -1 -13 -2z"/>
<path d="M1590 401 c0 -5 7 -12 16 -15 14 -5 15 -4 4 9 -14 17 -20 19 -20 6z"/>
<path d="M1656 401 c-4 -5 1 -8 9 -7 21 3 31 16 12 16 -9 0 -18 -4 -21 -9z"/>
<path d="M2959 408 c-5 -18 -6 -38 -1 -34 7 8 12 36 6 36 -2 0 -4 -1 -5 -2z"/>
<path d="M3112 395 c3 -20 38 -30 38 -12 0 7 5 5 10 -3 5 -8 10 -10 10 -3 0 6
11 10 24 9 17 -2 23 1 19 10 -6 17 -29 18 -39 3 -4 -8 -9 -8 -17 0 -13 13 -30
15 -22 2 3 -5 0 -13 -6 -17 -7 -4 -9 -3 -5 4 3 6 1 14 -5 17 -7 5 -10 1 -7
-10z"/>
<path d="M3380 405 c0 -2 6 -8 13 -14 10 -8 14 -7 14 2 0 8 -6 14 -14 14 -7 0
-13 -1 -13 -2z"/>
<path d="M3510 401 c0 -5 7 -12 16 -15 14 -5 15 -4 4 9 -14 17 -20 19 -20 6z"/>
<path d="M3576 401 c-4 -5 1 -8 9 -7 21 3 31 16 12 16 -9 0 -18 -4 -21 -9z"/>
<path d="M4180 405 c0 -2 6 -8 13 -14 10 -8 14 -7 14 2 0 8 -6 14 -14 14 -7 0
-13 -1 -13 -2z"/>
<path d="M4310 400 c0 -5 5 -10 11 -10 5 0 7 5 4 10 -3 6 -8 10 -11 10 -2 0
-4 -4 -4 -10z"/>
<path d="M4383 395 c0 -8 4 -12 9 -9 5 3 16 0 25 -8 15 -12 15 -11 2 10 -16
25 -36 29 -36 7z"/>
<path d="M4500 405 c0 -2 6 -8 13 -14 10 -8 14 -7 14 2 0 8 -6 14 -14 14 -7 0
-13 -1 -13 -2z"/>
<path d="M1437 393 c-11 -11 -8 -21 9 -27 13 -5 14 -4 6 7 -7 8 -9 17 -5 20 3
4 4 7 1 7 -2 0 -8 -3 -11 -7z"/>
<path d="M3357 393 c-11 -11 -8 -21 9 -27 13 -5 14 -4 6 7 -7 8 -9 17 -5 20 3
4 4 7 1 7 -2 0 -8 -3 -11 -7z"/>
<path d="M6430 380 c0 -5 5 -10 10 -10 6 0 10 5 10 10 0 6 -4 10 -10 10 -5 0
-10 -4 -10 -10z"/>
<path d="M6530 385 c0 -7 30 -13 34 -7 3 4 -4 9 -15 9 -10 1 -19 0 -19 -2z"/>
<path d="M553 367 c0 -7 9 -14 20 -14 11 -1 18 -1 16 0 -2 2 -11 8 -20 15 -12
9 -16 9 -16 -1z"/>
<path d="M5910 360 c0 -5 5 -10 10 -10 6 0 10 5 10 10 0 6 -4 10 -10 10 -5 0
-10 -4 -10 -10z"/>
<path d="M6380 360 c-18 -12 -2 -12 25 0 13 6 15 9 5 9 -8 0 -22 -4 -30 -9z"/>
<path d="M660 345 c-7 -9 -8 -15 -2 -15 5 0 12 7 16 15 3 8 4 15 2 15 -2 0 -9
-7 -16 -15z"/>
<path d="M608 343 c10 -4 10 -8 0 -21 -12 -15 -11 -16 4 -3 19 14 15 32 -5 30
-8 0 -8 -2 1 -6z"/>
<path d="M6304 334 c-18 -14 -18 -14 6 -3 31 14 36 19 24 19 -6 0 -19 -7 -30
-16z"/>
<path d="M6396 342 c-3 -5 1 -9 9 -9 8 0 12 4 9 9 -3 4 -7 8 -9 8 -2 0 -6 -4
-9 -8z"/>
<path d="M6496 338 c3 -5 10 -6 15 -3 13 9 11 12 -6 12 -8 0 -12 -4 -9 -9z"/>
<path d="M579 338 c-5 -9 -5 -48 -1 -43 6 6 11 45 5 45 -2 0 -4 -1 -4 -2z"/>
<path d="M6350 325 c0 -8 2 -15 4 -15 2 0 6 7 10 15 3 8 1 15 -4 15 -6 0 -10
-7 -10 -15z"/>
<path d="M1728 314 c-4 -16 -1 -21 11 -19 9 1 21 -5 27 -13 9 -12 13 -12 19
-2 5 8 4 11 -2 7 -6 -4 -14 0 -17 9 -3 8 -10 13 -15 10 -5 -4 -11 2 -13 11 -3
15 -5 15 -10 -3z"/>
<path d="M2660 316 c0 -9 -5 -14 -10 -11 -6 3 -13 -1 -16 -9 -3 -9 -9 -14 -13
-11 -4 2 -8 -3 -8 -12 0 -13 4 -12 17 5 10 12 20 18 24 15 3 -3 8 2 12 11 4 9
4 20 0 23 -3 4 -6 -1 -6 -11z"/>
<path d="M2870 321 c0 -5 5 -13 10 -16 6 -3 10 -2 10 4 0 5 -4 13 -10 16 -5 3
-10 2 -10 -4z"/>
<path d="M3648 314 c-4 -16 -1 -21 11 -19 9 1 21 -5 27 -13 9 -12 13 -12 19
-2 5 8 4 11 -2 7 -6 -4 -14 0 -17 9 -3 8 -10 13 -15 10 -5 -4 -11 2 -13 11 -3
15 -5 15 -10 -3z"/>
<path d="M6190 320 c0 -5 7 -7 15 -4 8 4 15 8 15 10 0 2 -7 4 -15 4 -8 0 -15
-4 -15 -10z"/>
<path d="M6230 325 c0 -5 5 -17 10 -25 5 -8 10 -10 10 -5 0 6 -5 17 -10 25 -5
8 -10 11 -10 5z"/>
<path d="M977 313 c-4 -3 -7 -11 -7 -17 0 -6 5 -5 12 2 6 6 9 14 7 17 -3 3 -9
2 -12 -2z"/>
<path d="M1255 308 c1 -7 8 -12 14 -10 14 3 14 -3 0 -31 -9 -19 -8 -20 3 -6 7
9 16 16 20 15 3 -1 10 3 15 8 4 5 3 6 -3 3 -7 -4 -15 0 -18 9 -3 8 -10 13 -15
10 -5 -4 -12 -1 -14 4 -3 6 -4 5 -2 -2z"/>
<path d="M1457 313 c-4 -3 -7 -11 -7 -17 0 -6 5 -5 12 2 6 6 9 14 7 17 -3 3
-9 2 -12 -2z"/>
<path d="M1672 311 c-11 -7 -10 -9 3 -14 9 -4 14 -3 10 2 -3 5 1 12 7 14 7 3
9 6 3 6 -5 0 -16 -3 -23 -8z"/>
<path d="M2417 313 c-4 -3 -7 -11 -7 -17 0 -6 5 -5 12 2 6 6 9 14 7 17 -3 3
-9 2 -12 -2z"/>
<path d="M3377 313 c-4 -3 -7 -11 -7 -17 0 -6 5 -5 12 2 6 6 9 14 7 17 -3 3
-9 2 -12 -2z"/>
<path d="M3592 311 c-11 -7 -10 -9 3 -14 9 -4 14 -3 10 2 -3 5 1 12 7 14 7 3
9 6 3 6 -5 0 -16 -3 -23 -8z"/>
<path d="M3857 313 c-4 -3 -7 -11 -7 -17 0 -6 5 -5 12 2 6 6 9 14 7 17 -3 3
-9 2 -12 -2z"/>
<path d="M4177 313 c-4 -3 -7 -11 -7 -17 0 -6 5 -5 12 2 6 6 9 14 7 17 -3 3
-9 2 -12 -2z"/>
<path d="M4451 313 c-1 -17 16 -25 25 -12 4 7 3 9 -4 5 -5 -3 -13 0 -15 6 -4
9 -6 10 -6 1z"/>
<path d="M4497 313 c-4 -3 -7 -11 -7 -17 0 -6 5 -5 12 2 6 6 9 14 7 17 -3 3
-9 2 -12 -2z"/>
<path d="M5731 313 c-1 -18 13 -23 29 -11 12 8 12 9 -2 5 -9 -3 -19 -1 -22 6
-3 9 -5 9 -5 0z"/>
<path d="M6097 313 c-4 -3 -7 -11 -7 -17 0 -6 5 -5 12 2 6 6 9 14 7 17 -3 3
-9 2 -12 -2z"/>
<path d="M6310 316 c0 -2 8 -10 18 -17 15 -13 16 -12 3 4 -13 16 -21 21 -21
13z"/>
<path d="M630 299 c0 -5 5 -7 10 -4 6 3 10 8 10 11 0 2 -4 4 -10 4 -5 0 -10
-5 -10 -11z"/>
<path d="M874 295 c-4 -8 -9 -13 -13 -10 -4 2 -8 -2 -8 -10 0 -8 4 -12 9 -9 5
3 17 0 26 -7 14 -11 15 -11 5 1 -16 18 -17 44 -1 34 7 -4 8 -3 4 4 -10 16 -15
15 -22 -3z"/>
<path d="M2809 294 c6 -12 8 -23 6 -26 -2 -2 5 -4 15 -4 15 0 17 3 8 11 -7 5
-18 17 -26 25 -11 13 -12 12 -3 -6z"/>
<path d="M3996 295 c-9 -26 -7 -32 5 -12 6 10 9 21 6 23 -2 3 -7 -2 -11 -11z"/>
<path d="M4110 300 c0 -5 5 -10 10 -10 6 0 10 5 10 10 0 6 -4 10 -10 10 -5 0
-10 -4 -10 -10z"/>
<path d="M4830 299 c0 -5 5 -7 10 -4 9 6 14 -8 11 -28 -1 -5 3 -6 9 -2 7 4 7
12 0 26 -11 20 -30 26 -30 8z"/>
<path d="M5150 300 c0 -6 5 -8 10 -5 6 3 10 -1 10 -9 0 -8 4 -18 10 -21 6 -4
7 2 1 16 -9 25 -31 38 -31 19z"/>
<path d="M5470 299 c0 -5 5 -7 10 -4 9 6 14 -8 11 -28 -1 -5 3 -6 9 -2 7 4 7
12 0 26 -11 20 -30 26 -30 8z"/>
<path d="M6204 299 c-4 -7 -3 -9 4 -5 5 3 13 0 15 -6 4 -9 6 -10 6 -1 1 17
-16 25 -25 12z"/>
<path d="M655 290 c-3 -5 -2 -18 4 -27 7 -14 9 -12 8 10 -2 30 -3 31 -12 17z"/>
<path d="M1070 285 c0 -8 4 -15 10 -15 5 0 7 7 4 15 -4 8 -8 15 -10 15 -2 0
-4 -7 -4 -15z"/>
<path d="M1431 284 c0 -11 3 -14 6 -6 3 7 2 16 -1 19 -3 4 -6 -2 -5 -13z"/>
<path d="M1550 285 c0 -8 4 -15 10 -15 5 0 7 7 4 15 -4 8 -8 15 -10 15 -2 0
-4 -7 -4 -15z"/>
<path d="M1817 281 c-4 -17 -3 -21 5 -13 5 5 8 16 6 23 -3 8 -7 3 -11 -10z"/>
<path d="M1876 285 c-3 -8 -1 -15 4 -15 6 0 10 7 10 15 0 8 -2 15 -4 15 -2 0
-6 -7 -10 -15z"/>
<path d="M2390 291 c0 -7 -4 -9 -10 -6 -5 3 -10 1 -10 -4 0 -6 4 -11 9 -11 13
0 25 20 17 27 -3 4 -6 1 -6 -6z"/>
<path d="M2510 291 c0 -6 4 -13 10 -16 6 -3 7 1 4 9 -7 18 -14 21 -14 7z"/>
<path d="M2690 291 c0 -7 -4 -9 -10 -6 -5 3 -10 1 -10 -4 0 -6 4 -11 9 -11 13
0 25 20 17 27 -3 4 -6 1 -6 -6z"/>
<path d="M3351 284 c0 -11 3 -14 6 -6 3 7 2 16 -1 19 -3 4 -6 -2 -5 -13z"/>
<path d="M3470 285 c0 -8 4 -15 10 -15 5 0 7 7 4 15 -4 8 -8 15 -10 15 -2 0
-4 -7 -4 -15z"/>
<path d="M3737 281 c-4 -17 -3 -21 5 -13 5 5 8 16 6 23 -3 8 -7 3 -11 -10z"/>
<path d="M3796 285 c-3 -8 -1 -15 4 -15 6 0 10 7 10 15 0 8 -2 15 -4 15 -2 0
-6 -7 -10 -15z"/>
<path d="M3951 289 c-1 -9 7 -23 17 -30 15 -12 16 -12 6 1 -6 8 -14 22 -17 30
-5 13 -6 12 -6 -1z"/>
<path d="M4270 285 c0 -8 4 -15 10 -15 5 0 7 7 4 15 -4 8 -8 15 -10 15 -2 0
-4 -7 -4 -15z"/>
<path d="M4591 289 c-1 -9 7 -23 17 -30 15 -12 16 -12 6 1 -6 8 -14 22 -17 30
-5 13 -6 12 -6 -1z"/>
<path d="M4737 281 c-4 -17 -3 -21 5 -13 5 5 8 16 6 23 -3 8 -7 3 -11 -10z"/>
<path d="M5377 285 c-4 -8 -3 -16 1 -19 4 -3 9 4 9 15 2 23 -3 25 -10 4z"/>
<path d="M5810 286 c0 -8 4 -17 9 -20 5 -4 7 3 4 14 -6 23 -13 26 -13 6z"/>
<path d="M733 275 c0 -8 4 -12 9 -9 4 3 8 9 8 15 0 5 -4 9 -8 9 -5 0 -9 -7 -9
-15z"/>
<path d="M780 280 c-8 -5 -10 -10 -5 -10 6 0 17 5 25 10 8 5 11 10 5 10 -5 0
-17 -5 -25 -10z"/>
<path d="M2050 282 c0 -5 7 -9 15 -9 8 0 12 4 9 9 -3 4 -9 8 -15 8 -5 0 -9 -4
-9 -8z"/>
<path d="M2130 280 c0 -5 5 -10 10 -10 6 0 10 5 10 10 0 6 -4 10 -10 10 -5 0
-10 -4 -10 -10z"/>
<path d="M2195 280 c3 -5 8 -10 11 -10 2 0 4 5 4 10 0 6 -5 10 -11 10 -5 0 -7
-4 -4 -10z"/>
<path d="M2266 277 c3 -10 9 -15 12 -12 3 3 0 11 -7 18 -10 9 -11 8 -5 -6z"/>
<path d="M2317 275 c-4 -8 -3 -16 1 -19 4 -3 9 4 9 15 2 23 -3 25 -10 4z"/>
<path d="M2434 261 c0 -16 3 -27 6 -25 7 8 7 54 0 54 -4 0 -7 -13 -6 -29z"/>
<path d="M2545 279 c-4 -6 -5 -12 -2 -15 2 -3 7 2 10 11 7 17 1 20 -8 4z"/>
<path d="M2730 281 c0 -6 4 -13 10 -16 6 -3 7 1 4 9 -7 18 -14 21 -14 7z"/>
<path d="M3010 282 c0 -5 7 -9 15 -9 8 0 12 4 9 9 -3 4 -9 8 -15 8 -5 0 -9 -4
-9 -8z"/>
<path d="M3090 280 c0 -5 5 -10 10 -10 6 0 10 5 10 10 0 6 -4 10 -10 10 -5 0
-10 -4 -10 -10z"/>
<path d="M3155 280 c3 -5 8 -10 11 -10 2 0 4 5 4 10 0 6 -5 10 -11 10 -5 0 -7
-4 -4 -10z"/>
<path d="M3875 280 c3 -5 8 -10 11 -10 2 0 4 5 4 10 0 6 -5 10 -11 10 -5 0 -7
-4 -4 -10z"/>
<path d="M3931 274 c0 -11 3 -14 6 -6 3 7 2 16 -1 19 -3 4 -6 -2 -5 -13z"/>
<path d="M4015 280 c-4 -6 1 -7 11 -3 13 5 15 3 9 -7 -5 -9 -4 -11 4 -6 6 4 9
12 6 17 -8 12 -22 12 -30 -1z"/>
<path d="M4088 283 c6 -2 9 -10 6 -15 -4 -7 -2 -8 5 -4 13 9 5 26 -12 25 -9 0
-8 -2 1 -6z"/>
<path d="M4145 280 c3 -5 8 -10 11 -10 2 0 4 5 4 10 0 6 -5 10 -11 10 -5 0 -7
-4 -4 -10z"/>
<path d="M4515 280 c3 -5 8 -10 11 -10 2 0 4 5 4 10 0 6 -5 10 -11 10 -5 0 -7
-4 -4 -10z"/>
<path d="M4571 274 c0 -11 3 -14 6 -6 3 7 2 16 -1 19 -3 4 -6 -2 -5 -13z"/>
<path d="M4796 282 c-3 -5 1 -9 9 -9 8 0 15 4 15 9 0 4 -4 8 -9 8 -6 0 -12 -4
-15 -8z"/>
<path d="M4915 280 c-3 -5 -2 -10 4 -10 5 0 13 5 16 10 3 6 2 10 -4 10 -5 0
-13 -4 -16 -10z"/>
<path d="M5110 270 c-9 -16 -8 -18 5 -14 8 3 13 10 10 14 -3 5 1 11 7 13 10 4
10 6 1 6 -7 1 -17 -8 -23 -19z"/>
<path d="M5245 280 c3 -5 11 -10 16 -10 6 0 7 5 4 10 -3 6 -11 10 -16 10 -6 0
-7 -4 -4 -10z"/>
<path d="M5445 280 c3 -5 8 -10 11 -10 2 0 4 5 4 10 0 6 -5 10 -11 10 -5 0 -7
-4 -4 -10z"/>
<path d="M5555 280 c-3 -5 -2 -10 4 -10 5 0 13 5 16 10 3 6 2 10 -4 10 -5 0
-13 -4 -16 -10z"/>
<path d="M5750 270 c-9 -16 -8 -18 5 -14 8 3 13 10 10 14 -3 5 1 11 7 13 10 4
10 6 1 6 -7 1 -17 -8 -23 -19z"/>
<path d="M5888 283 c6 -2 9 -10 6 -15 -4 -7 -2 -8 5 -4 13 9 5 26 -12 25 -9 0
-8 -2 1 -6z"/>
<path d="M5960 280 c-9 -6 -10 -10 -3 -10 6 0 15 5 18 10 8 12 4 12 -15 0z"/>
<path d="M6307 279 c7 -7 15 -10 18 -7 3 3 -2 9 -12 12 -14 6 -15 5 -6 -5z"/>
<path d="M2867 266 c-4 -10 1 -12 14 -9 23 6 24 9 5 16 -8 3 -17 0 -19 -7z"/>
<path d="M4467 267 c-3 -8 0 -14 7 -14 7 0 13 6 13 14 0 17 -13 17 -20 0z"/>
<path d="M5146 263 c-6 -14 -5 -15 5 -6 7 7 10 15 7 18 -3 3 -9 -2 -12 -12z"/>
<path d="M5786 263 c-6 -14 -5 -15 5 -6 7 7 10 15 7 18 -3 3 -9 -2 -12 -12z"/>
<path d="M1040 260 c-9 -6 -10 -10 -3 -10 6 0 15 5 18 10 8 12 4 12 -15 0z"/>
<path d="M1167 259 c7 -7 15 -10 18 -7 3 3 -2 9 -12 12 -14 6 -15 5 -6 -5z"/>
<path d="M1400 260 c-9 -6 -10 -10 -3 -10 6 0 15 5 18 10 8 12 4 12 -15 0z"/>
<path d="M1520 260 c-9 -6 -10 -10 -3 -10 6 0 15 5 18 10 8 12 4 12 -15 0z"/>
<path d="M1840 260 c-9 -6 -10 -10 -3 -10 6 0 15 5 18 10 8 12 4 12 -15 0z"/>
<path d="M1958 263 c7 -3 16 -2 19 1 4 3 -2 6 -13 5 -11 0 -14 -3 -6 -6z"/>
<path d="M1993 255 c0 -8 4 -12 9 -9 5 3 6 10 3 15 -9 13 -12 11 -12 -6z"/>
<path d="M2191 253 c7 -12 15 -20 18 -17 3 2 -3 12 -13 22 -17 16 -18 16 -5
-5z"/>
<path d="M2224 262 c4 -3 14 -7 22 -8 9 -1 13 0 10 4 -4 3 -14 7 -22 8 -9 1
-13 0 -10 -4z"/>
<path d="M2467 259 c7 -7 15 -10 18 -7 3 3 -2 9 -12 12 -14 6 -15 5 -6 -5z"/>
<path d="M2640 260 c-9 -6 -10 -10 -3 -10 6 0 15 5 18 10 8 12 4 12 -15 0z"/>
<path d="M2767 259 c7 -7 15 -10 18 -7 3 3 -2 9 -12 12 -14 6 -15 5 -6 -5z"/>
<path d="M2918 263 c7 -3 16 -2 19 1 4 3 -2 6 -13 5 -11 0 -14 -3 -6 -6z"/>
<path d="M2953 255 c0 -8 4 -12 9 -9 5 3 6 10 3 15 -9 13 -12 11 -12 -6z"/>
<path d="M3151 253 c7 -12 15 -20 18 -17 3 2 -3 12 -13 22 -17 16 -18 16 -5
-5z"/>
<path d="M3189 257 c6 -8 7 -18 3 -22 -4 -5 -1 -5 6 -1 10 6 10 11 1 22 -6 8
-14 14 -16 14 -3 0 0 -6 6 -13z"/>
<path d="M3320 260 c-9 -6 -10 -10 -3 -10 6 0 15 5 18 10 8 12 4 12 -15 0z"/>
<path d="M3440 260 c-9 -6 -10 -10 -3 -10 6 0 15 5 18 10 8 12 4 12 -15 0z"/>
<path d="M3760 260 c-9 -6 -10 -10 -3 -10 6 0 15 5 18 10 8 12 4 12 -15 0z"/>
<path d="M4060 260 c-9 -6 -10 -10 -3 -10 6 0 15 5 18 10 8 12 4 12 -15 0z"/>
<path d="M4120 255 c-7 -8 -17 -12 -23 -8 -6 4 -7 1 -3 -6 6 -9 13 -8 27 5 10
9 19 19 19 21 0 7 -8 2 -20 -12z"/>
<path d="M4240 260 c-9 -6 -10 -10 -3 -10 6 0 15 5 18 10 8 12 4 12 -15 0z"/>
<path d="M4367 259 c7 -7 15 -10 18 -7 3 3 -2 9 -12 12 -14 6 -15 5 -6 -5z"/>
<path d="M4700 260 c-9 -6 -10 -10 -3 -10 6 0 15 5 18 10 8 12 4 12 -15 0z"/>
<path d="M4760 255 c-7 -8 -17 -12 -23 -8 -6 4 -7 1 -3 -6 6 -9 13 -8 27 5 10
9 19 19 19 21 0 7 -8 2 -20 -12z"/>
<path d="M4880 260 c-9 -6 -10 -10 -3 -10 6 0 15 5 18 10 8 12 4 12 -15 0z"/>
<path d="M5007 259 c7 -7 15 -10 18 -7 3 3 -2 9 -12 12 -14 6 -15 5 -6 -5z"/>
<path d="M5220 260 c-9 -6 -10 -10 -3 -10 6 0 15 5 18 10 8 12 4 12 -15 0z"/>
<path d="M5280 255 c-11 -13 -11 -18 0 -28 10 -9 11 -9 6 1 -4 7 -2 19 4 27 7
8 10 15 7 15 -2 0 -10 -7 -17 -15z"/>
<path d="M5349 258 c7 -9 9 -23 5 -30 -6 -10 -4 -11 7 0 11 10 10 15 -6 30
-17 15 -18 15 -6 0z"/>
<path d="M5520 260 c-9 -6 -10 -10 -3 -10 6 0 15 5 18 10 8 12 4 12 -15 0z"/>
<path d="M5647 259 c7 -7 15 -10 18 -7 3 3 -2 9 -12 12 -14 6 -15 5 -6 -5z"/>
<path d="M5860 260 c-9 -6 -10 -10 -3 -10 6 0 15 5 18 10 8 12 4 12 -15 0z"/>
<path d="M5920 255 c-11 -13 -11 -18 0 -28 10 -9 11 -9 6 1 -4 7 -2 19 4 27 7
8 10 15 7 15 -2 0 -10 -7 -17 -15z"/>
<path d="M5991 253 c7 -12 15 -20 18 -17 3 2 -3 12 -13 22 -17 16 -18 16 -5
-5z"/>
<path d="M6047 259 c7 -7 15 -10 18 -7 3 3 -2 9 -12 12 -14 6 -15 5 -6 -5z"/>
<path d="M1075 251 c-3 -5 -2 -12 3 -15 5 -3 9 1 9 9 0 17 -3 19 -12 6z"/>
<path d="M1333 245 c0 -8 4 -15 9 -15 4 0 8 4 8 9 0 6 -4 12 -8 15 -5 3 -9 -1
-9 -9z"/>
<path d="M1555 251 c-3 -5 -2 -12 3 -15 5 -3 9 1 9 9 0 17 -3 19 -12 6z"/>
<path d="M1875 251 c-3 -5 -2 -12 3 -15 5 -3 9 1 9 9 0 17 -3 19 -12 6z"/>
<path d="M2056 247 c3 -10 9 -15 12 -12 3 3 0 11 -7 18 -10 9 -11 8 -5 -6z"/>
<path d="M2675 251 c-3 -5 -2 -12 3 -15 5 -3 9 1 9 9 0 17 -3 19 -12 6z"/>
<path d="M3016 247 c3 -10 9 -15 12 -12 3 3 0 11 -7 18 -10 9 -11 8 -5 -6z"/>
<path d="M3253 245 c0 -8 4 -15 9 -15 4 0 8 4 8 9 0 6 -4 12 -8 15 -5 3 -9 -1
-9 -9z"/>
<path d="M3475 251 c-3 -5 -2 -12 3 -15 5 -3 9 1 9 9 0 17 -3 19 -12 6z"/>
<path d="M3795 251 c-3 -5 -2 -12 3 -15 5 -3 9 1 9 9 0 17 -3 19 -12 6z"/>
<path d="M4275 251 c-3 -5 -2 -12 3 -15 5 -3 9 1 9 9 0 17 -3 19 -12 6z"/>
<path d="M4915 251 c-3 -5 -2 -12 3 -15 5 -3 9 1 9 9 0 17 -3 19 -12 6z"/>
<path d="M5555 251 c-3 -5 -2 -12 3 -15 5 -3 9 1 9 9 0 17 -3 19 -12 6z"/>
<path d="M6105 240 c10 -11 20 -20 23 -20 3 0 -3 9 -13 20 -10 11 -20 20 -23
20 -3 0 3 -9 13 -20z"/>
<path d="M940 246 c0 -2 8 -10 18 -17 15 -13 16 -12 3 4 -13 16 -21 21 -21 13z"/>
<path d="M3871 233 c7 -12 15 -20 18 -17 3 2 -3 12 -13 22 -17 16 -18 16 -5
-5z"/>
<path d="M4511 233 c7 -12 15 -20 18 -17 3 2 -3 12 -13 22 -17 16 -18 16 -5
-5z"/>
<path d="M5240 235 c-7 -8 -17 -12 -23 -8 -6 4 -7 1 -3 -6 6 -9 13 -8 27 5 10
9 19 19 19 21 0 7 -8 2 -20 -12z"/>
<path d="M5391 233 c7 -12 15 -20 18 -17 3 2 -3 12 -13 22 -17 16 -18 16 -5
-5z"/>
<path d="M5820 246 c0 -2 8 -10 18 -17 15 -13 16 -12 3 4 -13 16 -21 21 -21
13z"/>
<path d="M985 220 c-3 -6 1 -7 9 -4 18 7 21 14 7 14 -6 0 -13 -4 -16 -10z"/>
<path d="M1255 220 c-3 -5 -1 -10 4 -10 6 0 11 5 11 10 0 6 -2 10 -4 10 -3 0
-8 -4 -11 -10z"/>
<path d="M1465 220 c-3 -6 1 -7 9 -4 18 7 21 14 7 14 -6 0 -13 -4 -16 -10z"/>
<path d="M1710 226 c0 -2 7 -7 16 -10 8 -3 12 -2 9 4 -6 10 -25 14 -25 6z"/>
<path d="M1785 220 c-3 -6 1 -7 9 -4 18 7 21 14 7 14 -6 0 -13 -4 -16 -10z"/>
<path d="M2005 220 c-3 -6 1 -7 9 -4 18 7 21 14 7 14 -6 0 -13 -4 -16 -10z"/>
<path d="M2253 215 c0 -8 4 -12 9 -9 5 3 6 10 3 15 -9 13 -12 11 -12 -6z"/>
<path d="M2330 226 c0 -2 7 -7 16 -10 8 -3 12 -2 9 4 -6 10 -25 14 -25 6z"/>
<path d="M2510 226 c0 -2 7 -7 16 -10 8 -3 12 -2 9 4 -6 10 -25 14 -25 6z"/>
<path d="M2585 220 c-3 -6 1 -7 9 -4 18 7 21 14 7 14 -6 0 -13 -4 -16 -10z"/>
<path d="M2855 220 c-3 -5 -1 -10 4 -10 6 0 11 5 11 10 0 6 -2 10 -4 10 -3 0
-8 -4 -11 -10z"/>
<path d="M2965 220 c-3 -6 1 -7 9 -4 18 7 21 14 7 14 -6 0 -13 -4 -16 -10z"/>
<path d="M3385 220 c-3 -6 1 -7 9 -4 18 7 21 14 7 14 -6 0 -13 -4 -16 -10z"/>
<path d="M3630 226 c0 -2 7 -7 16 -10 8 -3 12 -2 9 4 -6 10 -25 14 -25 6z"/>
<path d="M3705 220 c-3 -6 1 -7 9 -4 18 7 21 14 7 14 -6 0 -13 -4 -16 -10z"/>
<path d="M4185 220 c-3 -6 1 -7 9 -4 18 7 21 14 7 14 -6 0 -13 -4 -16 -10z"/>
<path d="M4455 220 c-3 -5 -1 -10 4 -10 6 0 11 5 11 10 0 6 -2 10 -4 10 -3 0
-8 -4 -11 -10z"/>
<path d="M4825 220 c-3 -6 1 -7 9 -4 18 7 21 14 7 14 -6 0 -13 -4 -16 -10z"/>
<path d="M5095 220 c-3 -5 -1 -10 4 -10 6 0 11 5 11 10 0 6 -2 10 -4 10 -3 0
-8 -4 -11 -10z"/>
<path d="M5465 220 c-3 -6 1 -7 9 -4 18 7 21 14 7 14 -6 0 -13 -4 -16 -10z"/>
<path d="M5735 220 c-3 -5 -1 -10 4 -10 6 0 11 5 11 10 0 6 -2 10 -4 10 -3 0
-8 -4 -11 -10z"/>
<path d="M5865 220 c-3 -6 1 -7 9 -4 18 7 21 14 7 14 -6 0 -13 -4 -16 -10z"/>
<path d="M6045 220 c-3 -6 1 -7 9 -4 18 7 21 14 7 14 -6 0 -13 -4 -16 -10z"/>
</g>
</svg>
